<?xml version="1.0" encoding="UTF-8" standalone="no"?>
<!DOCTYPE svg PUBLIC "-//W3C//DTD SVG 1.1//EN"
 "http://www.w3.org/Graphics/SVG/1.1/DTD/svg11.dtd">
<!-- Generated by graphviz version 2.47.0 (20210316.0004)
 -->
<!-- Title: dependencies Pages: 1 -->
<svg width="504pt" height="211pt"
 viewBox="0.00 0.00 504.00 211.00" xmlns="http://www.w3.org/2000/svg" xmlns:xlink="http://www.w3.org/1999/xlink">
<g id="graph0" class="graph" transform="scale(1 1) rotate(0) translate(4 207)">
<title>dependencies</title>
<polygon fill="white" stroke="transparent" points="-4,4 -4,-207 500,-207 500,4 -4,4"/>
<text text-anchor="start" x="227.01" y="-42.4" font-family="Times-12" font-weight="bold" font-size="14.00">Legend</text>
<polygon fill="#ffffb3" stroke="transparent" points="14,-10 14,-30 34,-30 34,-10 14,-10"/>
<text text-anchor="start" x="37.63" y="-15.4" font-family="Times-12" font-size="14.00"> &#160;Declarations</text>
<polygon fill="#8dd3c7" stroke="transparent" points="127,-10 127,-30 147,-30 147,-10 127,-10"/>
<text text-anchor="start" x="150.73" y="-15.4" font-family="Times-12" font-size="14.00"> &#160;Module</text>
<polygon fill="#80b1d3" stroke="transparent" points="213,-10 213,-30 233,-30 233,-10 213,-10"/>
<text text-anchor="start" x="236.78" y="-15.4" font-family="Times-12" font-size="14.00"> &#160;Bootstrap</text>
<polygon fill="#fdb462" stroke="transparent" points="310,-10 310,-30 330,-30 330,-10 310,-10"/>
<text text-anchor="start" x="333.67" y="-15.4" font-family="Times-12" font-size="14.00"> &#160;Providers</text>
<polygon fill="#fb8072" stroke="transparent" points="406,-10 406,-30 426,-30 426,-10 406,-10"/>
<text text-anchor="start" x="429.73" y="-15.4" font-family="Times-12" font-size="14.00"> &#160;Exports</text>
<g id="clust1" class="cluster">
<title>cluster_ContactModule</title>
<polygon fill="none" stroke="black" stroke-dasharray="1,5" points="101,-70 101,-195 395,-195 395,-70 101,-70"/>
</g>
<g id="clust3" class="cluster">
<title>cluster_ContactModule_imports</title>
<polygon fill="none" stroke="black" points="273,-78 273,-130 387,-130 387,-78 273,-78"/>
</g>
<g id="clust6" class="cluster">
<title>cluster_ContactModule_providers</title>
<polygon fill="none" stroke="black" points="109,-78 109,-130 265,-130 265,-78 109,-78"/>
</g>
<!-- PrismaModule -->
<g id="node1" class="node">
<title>PrismaModule</title>
<polygon fill="#8dd3c7" stroke="black" points="379.43,-122 376.43,-126 355.43,-126 352.43,-122 280.57,-122 280.57,-86 379.43,-86 379.43,-122"/>
<text text-anchor="middle" x="330" y="-99.8" font-family="Times,serif" font-size="14.00">PrismaModule</text>
</g>
<!-- ContactModule -->
<g id="node2" class="node">
<title>ContactModule</title>
<polygon fill="#8dd3c7" stroke="black" points="309.6,-187 306.6,-191 285.6,-191 282.6,-187 206.4,-187 206.4,-151 309.6,-151 309.6,-187"/>
<text text-anchor="middle" x="258" y="-164.8" font-family="Times,serif" font-size="14.00">ContactModule</text>
</g>
<!-- PrismaModule&#45;&gt;ContactModule -->
<g id="edge1" class="edge">
<title>PrismaModule&#45;&gt;ContactModule</title>
<path fill="none" stroke="black" d="M295.17,-122.11C295.17,-122.11 295.17,-140.99 295.17,-140.99"/>
<polygon fill="black" stroke="black" points="291.67,-140.99 295.17,-150.99 298.67,-140.99 291.67,-140.99"/>
</g>
<!-- ContactService -->
<g id="node3" class="node">
<title>ContactService</title>
<ellipse fill="#fdb462" stroke="black" cx="187" cy="-104" rx="70.06" ry="18"/>
<text text-anchor="middle" x="187" y="-99.8" font-family="Times,serif" font-size="14.00">ContactService</text>
</g>
<!-- ContactService&#45;&gt;ContactModule -->
<g id="edge2" class="edge">
<title>ContactService&#45;&gt;ContactModule</title>
<path fill="none" stroke="black" d="M231.74,-118.1C231.74,-118.1 231.74,-140.72 231.74,-140.72"/>
<polygon fill="black" stroke="black" points="228.24,-140.72 231.74,-150.72 235.24,-140.72 228.24,-140.72"/>
</g>
</g>
</svg>
