<?xml version="1.0" encoding="UTF-8" standalone="no"?>
<!DOCTYPE svg PUBLIC "-//W3C//DTD SVG 1.1//EN"
 "http://www.w3.org/Graphics/SVG/1.1/DTD/svg11.dtd">
<!-- Generated by graphviz version 2.47.0 (20210316.0004)
 -->
<!-- Title: dependencies Pages: 1 -->
<svg width="504pt" height="211pt"
 viewBox="0.00 0.00 504.00 211.00" xmlns="http://www.w3.org/2000/svg" xmlns:xlink="http://www.w3.org/1999/xlink">
<g id="graph0" class="graph" transform="scale(1 1) rotate(0) translate(4 207)">
<title>dependencies</title>
<polygon fill="white" stroke="transparent" points="-4,4 -4,-207 500,-207 500,4 -4,4"/>
<text text-anchor="start" x="227.01" y="-42.4" font-family="Times-12" font-weight="bold" font-size="14.00">Legend</text>
<polygon fill="#ffffb3" stroke="transparent" points="14,-10 14,-30 34,-30 34,-10 14,-10"/>
<text text-anchor="start" x="37.63" y="-15.4" font-family="Times-12" font-size="14.00"> &#160;Declarations</text>
<polygon fill="#8dd3c7" stroke="transparent" points="127,-10 127,-30 147,-30 147,-10 127,-10"/>
<text text-anchor="start" x="150.73" y="-15.4" font-family="Times-12" font-size="14.00"> &#160;Module</text>
<polygon fill="#80b1d3" stroke="transparent" points="213,-10 213,-30 233,-30 233,-10 213,-10"/>
<text text-anchor="start" x="236.78" y="-15.4" font-family="Times-12" font-size="14.00"> &#160;Bootstrap</text>
<polygon fill="#fdb462" stroke="transparent" points="310,-10 310,-30 330,-30 330,-10 310,-10"/>
<text text-anchor="start" x="333.67" y="-15.4" font-family="Times-12" font-size="14.00"> &#160;Providers</text>
<polygon fill="#fb8072" stroke="transparent" points="406,-10 406,-30 426,-30 426,-10 406,-10"/>
<text text-anchor="start" x="429.73" y="-15.4" font-family="Times-12" font-size="14.00"> &#160;Exports</text>
<g id="clust1" class="cluster">
<title>cluster_SheduleModule</title>
<polygon fill="none" stroke="black" stroke-dasharray="1,5" points="100,-70 100,-195 396,-195 396,-70 100,-70"/>
</g>
<g id="clust3" class="cluster">
<title>cluster_SheduleModule_imports</title>
<polygon fill="none" stroke="black" points="274,-78 274,-130 388,-130 388,-78 274,-78"/>
</g>
<g id="clust6" class="cluster">
<title>cluster_SheduleModule_providers</title>
<polygon fill="none" stroke="black" points="108,-78 108,-130 266,-130 266,-78 108,-78"/>
</g>
<!-- PrismaModule -->
<g id="node1" class="node">
<title>PrismaModule</title>
<polygon fill="#8dd3c7" stroke="black" points="380.43,-122 377.43,-126 356.43,-126 353.43,-122 281.57,-122 281.57,-86 380.43,-86 380.43,-122"/>
<text text-anchor="middle" x="331" y="-99.8" font-family="Times,serif" font-size="14.00">PrismaModule</text>
</g>
<!-- SheduleModule -->
<g id="node2" class="node">
<title>SheduleModule</title>
<polygon fill="#8dd3c7" stroke="black" points="311.15,-187 308.15,-191 287.15,-191 284.15,-187 206.85,-187 206.85,-151 311.15,-151 311.15,-187"/>
<text text-anchor="middle" x="259" y="-164.8" font-family="Times,serif" font-size="14.00">SheduleModule</text>
</g>
<!-- PrismaModule&#45;&gt;SheduleModule -->
<g id="edge1" class="edge">
<title>PrismaModule&#45;&gt;SheduleModule</title>
<path fill="none" stroke="black" d="M296.55,-122.11C296.55,-122.11 296.55,-140.99 296.55,-140.99"/>
<polygon fill="black" stroke="black" points="293.05,-140.99 296.55,-150.99 300.05,-140.99 293.05,-140.99"/>
</g>
<!-- SheduleService -->
<g id="node3" class="node">
<title>SheduleService</title>
<ellipse fill="#fdb462" stroke="black" cx="187" cy="-104" rx="71.21" ry="18"/>
<text text-anchor="middle" x="187" y="-99.8" font-family="Times,serif" font-size="14.00">SheduleService</text>
</g>
<!-- SheduleService&#45;&gt;SheduleModule -->
<g id="edge2" class="edge">
<title>SheduleService&#45;&gt;SheduleModule</title>
<path fill="none" stroke="black" d="M232.39,-118.1C232.39,-118.1 232.39,-140.72 232.39,-140.72"/>
<polygon fill="black" stroke="black" points="228.89,-140.72 232.39,-150.72 235.89,-140.72 228.89,-140.72"/>
</g>
</g>
</svg>
