<?xml version="1.0" encoding="UTF-8" standalone="no"?>
<!DOCTYPE svg PUBLIC "-//W3C//DTD SVG 1.1//EN"
 "http://www.w3.org/Graphics/SVG/1.1/DTD/svg11.dtd">
<!-- Generated by graphviz version 2.47.0 (20210316.0004)
 -->
<!-- Title: dependencies Pages: 1 -->
<svg width="2718pt" height="371pt"
 viewBox="0.00 0.00 2718.00 371.00" xmlns="http://www.w3.org/2000/svg" xmlns:xlink="http://www.w3.org/1999/xlink">
<g id="graph0" class="graph" transform="scale(1 1) rotate(0) translate(4 367)">
<title>dependencies</title>
<polygon fill="white" stroke="transparent" points="-4,4 -4,-367 2714,-367 2714,4 -4,4"/>
<text text-anchor="start" x="1334.01" y="-42.4" font-family="Times-12" font-weight="bold" font-size="14.00">Legend</text>
<polygon fill="#ffffb3" stroke="transparent" points="1121,-10 1121,-30 1141,-30 1141,-10 1121,-10"/>
<text text-anchor="start" x="1144.63" y="-15.4" font-family="Times-12" font-size="14.00"> &#160;Declarations</text>
<polygon fill="#8dd3c7" stroke="transparent" points="1234,-10 1234,-30 1254,-30 1254,-10 1234,-10"/>
<text text-anchor="start" x="1257.73" y="-15.4" font-family="Times-12" font-size="14.00"> &#160;Module</text>
<polygon fill="#80b1d3" stroke="transparent" points="1320,-10 1320,-30 1340,-30 1340,-10 1320,-10"/>
<text text-anchor="start" x="1343.78" y="-15.4" font-family="Times-12" font-size="14.00"> &#160;Bootstrap</text>
<polygon fill="#fdb462" stroke="transparent" points="1417,-10 1417,-30 1437,-30 1437,-10 1417,-10"/>
<text text-anchor="start" x="1440.67" y="-15.4" font-family="Times-12" font-size="14.00"> &#160;Providers</text>
<polygon fill="#fb8072" stroke="transparent" points="1513,-10 1513,-30 1533,-30 1533,-10 1513,-10"/>
<text text-anchor="start" x="1536.73" y="-15.4" font-family="Times-12" font-size="14.00"> &#160;Exports</text>
<g id="clust1" class="cluster">
<title>cluster_AppModule</title>
<polygon fill="none" stroke="black" stroke-dasharray="1,5" points="523,-146 523,-279 2220,-279 2220,-146 523,-146"/>
</g>
<g id="clust3" class="cluster">
<title>cluster_AppModule_imports</title>
<polygon fill="none" stroke="black" points="531,-154 531,-271 2120,-271 2120,-154 531,-154"/>
</g>
<g id="clust7" class="cluster">
<title>cluster_AuthModule</title>
<polygon fill="none" stroke="black" stroke-dasharray="1,5" points="1270,-287 1270,-355 1534,-355 1534,-287 1270,-287"/>
</g>
<g id="clust10" class="cluster">
<title>cluster_AuthModule_exports</title>
<polygon fill="none" stroke="black" points="1420,-295 1420,-347 1526,-347 1526,-295 1420,-295"/>
</g>
<g id="clust12" class="cluster">
<title>cluster_AuthModule_providers</title>
<polygon fill="none" stroke="black" points="1278,-295 1278,-347 1412,-347 1412,-295 1278,-295"/>
</g>
<g id="clust13" class="cluster">
<title>cluster_CallUserHistoryModule</title>
<polygon fill="none" stroke="black" stroke-dasharray="1,5" points="8,-70 8,-138 246,-138 246,-70 8,-70"/>
</g>
<g id="clust18" class="cluster">
<title>cluster_CallUserHistoryModule_providers</title>
<polygon fill="none" stroke="black" points="16,-78 16,-130 238,-130 238,-78 16,-78"/>
</g>
<g id="clust19" class="cluster">
<title>cluster_ContactModule</title>
<polygon fill="none" stroke="black" stroke-dasharray="1,5" points="2130,-70 2130,-138 2424,-138 2424,-70 2130,-70"/>
</g>
<g id="clust21" class="cluster">
<title>cluster_ContactModule_imports</title>
<polygon fill="none" stroke="black" points="2138,-78 2138,-130 2252,-130 2252,-78 2138,-78"/>
</g>
<g id="clust24" class="cluster">
<title>cluster_ContactModule_providers</title>
<polygon fill="none" stroke="black" points="2260,-78 2260,-130 2416,-130 2416,-78 2260,-78"/>
</g>
<g id="clust25" class="cluster">
<title>cluster_ContactPersonModule</title>
<polygon fill="none" stroke="black" stroke-dasharray="1,5" points="254,-70 254,-138 478,-138 478,-70 254,-70"/>
</g>
<g id="clust30" class="cluster">
<title>cluster_ContactPersonModule_providers</title>
<polygon fill="none" stroke="black" points="262,-78 262,-130 470,-130 470,-78 262,-78"/>
</g>
<g id="clust31" class="cluster">
<title>cluster_DirectorModule</title>
<polygon fill="none" stroke="black" stroke-dasharray="1,5" points="486,-70 486,-138 662,-138 662,-70 486,-70"/>
</g>
<g id="clust36" class="cluster">
<title>cluster_DirectorModule_providers</title>
<polygon fill="none" stroke="black" points="494,-78 494,-130 654,-130 654,-78 494,-78"/>
</g>
<g id="clust37" class="cluster">
<title>cluster_FiszkaModule</title>
<polygon fill="none" stroke="black" stroke-dasharray="1,5" points="670,-70 670,-138 832,-138 832,-70 670,-70"/>
</g>
<g id="clust42" class="cluster">
<title>cluster_FiszkaModule_providers</title>
<polygon fill="none" stroke="black" points="678,-78 678,-130 824,-130 824,-78 678,-78"/>
</g>
<g id="clust43" class="cluster">
<title>cluster_GroupModule</title>
<polygon fill="none" stroke="black" stroke-dasharray="1,5" points="840,-70 840,-138 1002,-138 1002,-70 840,-70"/>
</g>
<g id="clust48" class="cluster">
<title>cluster_GroupModule_providers</title>
<polygon fill="none" stroke="black" points="848,-78 848,-130 994,-130 994,-78 848,-78"/>
</g>
<g id="clust49" class="cluster">
<title>cluster_InterviewsModule</title>
<polygon fill="none" stroke="black" stroke-dasharray="1,5" points="1010,-70 1010,-138 1338,-138 1338,-70 1010,-70"/>
</g>
<g id="clust54" class="cluster">
<title>cluster_InterviewsModule_providers</title>
<polygon fill="none" stroke="black" points="1018,-78 1018,-130 1330,-130 1330,-78 1018,-78"/>
</g>
<g id="clust55" class="cluster">
<title>cluster_PredicteModule</title>
<polygon fill="none" stroke="black" stroke-dasharray="1,5" points="2526,-70 2526,-206 2702,-206 2702,-70 2526,-70"/>
</g>
<g id="clust60" class="cluster">
<title>cluster_PredicteModule_providers</title>
<polygon fill="none" stroke="black" points="2534,-78 2534,-130 2694,-130 2694,-78 2534,-78"/>
</g>
<g id="clust61" class="cluster">
<title>cluster_PrismaModule</title>
<polygon fill="none" stroke="black" stroke-dasharray="1,5" points="2228,-146 2228,-214 2518,-214 2518,-146 2228,-146"/>
</g>
<g id="clust64" class="cluster">
<title>cluster_PrismaModule_exports</title>
<polygon fill="none" stroke="black" points="2394,-154 2394,-206 2510,-206 2510,-154 2394,-154"/>
</g>
<g id="clust66" class="cluster">
<title>cluster_PrismaModule_providers</title>
<polygon fill="none" stroke="black" points="2236,-154 2236,-206 2386,-206 2386,-154 2236,-154"/>
</g>
<g id="clust67" class="cluster">
<title>cluster_RentalCostModule</title>
<polygon fill="none" stroke="black" stroke-dasharray="1,5" points="1346,-70 1346,-138 1544,-138 1544,-70 1346,-70"/>
</g>
<g id="clust72" class="cluster">
<title>cluster_RentalCostModule_providers</title>
<polygon fill="none" stroke="black" points="1354,-78 1354,-130 1536,-130 1536,-78 1354,-78"/>
</g>
<g id="clust73" class="cluster">
<title>cluster_SchoolModule</title>
<polygon fill="none" stroke="black" stroke-dasharray="1,5" points="1552,-70 1552,-138 1718,-138 1718,-70 1552,-70"/>
</g>
<g id="clust78" class="cluster">
<title>cluster_SchoolModule_providers</title>
<polygon fill="none" stroke="black" points="1560,-78 1560,-130 1710,-130 1710,-78 1560,-78"/>
</g>
<g id="clust79" class="cluster">
<title>cluster_SheduleDaysModule</title>
<polygon fill="none" stroke="black" stroke-dasharray="1,5" points="1726,-70 1726,-138 1940,-138 1940,-70 1726,-70"/>
</g>
<g id="clust84" class="cluster">
<title>cluster_SheduleDaysModule_providers</title>
<polygon fill="none" stroke="black" points="1734,-78 1734,-130 1932,-130 1932,-78 1734,-78"/>
</g>
<g id="clust85" class="cluster">
<title>cluster_SheduleModule</title>
<polygon fill="none" stroke="black" stroke-dasharray="1,5" points="1948,-70 1948,-138 2122,-138 2122,-70 1948,-70"/>
</g>
<g id="clust90" class="cluster">
<title>cluster_SheduleModule_providers</title>
<polygon fill="none" stroke="black" points="1956,-78 1956,-130 2114,-130 2114,-78 1956,-78"/>
</g>
<!-- AuthModule -->
<g id="node1" class="node">
<title>AuthModule</title>
<polygon fill="#8dd3c7" stroke="black" points="1452.55,-263 1449.55,-267 1428.55,-267 1425.55,-263 1365.45,-263 1365.45,-227 1452.55,-227 1452.55,-263"/>
<text text-anchor="middle" x="1409" y="-240.8" font-family="Times,serif" font-size="14.00">AuthModule</text>
</g>
<!-- AppModule -->
<g id="node14" class="node">
<title>AppModule</title>
<polygon fill="#8dd3c7" stroke="black" points="2211.66,-263 2208.66,-267 2187.66,-267 2184.66,-263 2128.34,-263 2128.34,-227 2211.66,-227 2211.66,-263"/>
<text text-anchor="middle" x="2170" y="-240.8" font-family="Times,serif" font-size="14.00">AppModule</text>
</g>
<!-- AuthModule&#45;&gt;AppModule -->
<g id="edge1" class="edge">
<title>AuthModule&#45;&gt;AppModule</title>
<path fill="none" stroke="black" d="M1452.65,-258C1452.65,-258 2117.94,-258 2117.94,-258"/>
<polygon fill="black" stroke="black" points="2117.94,-261.5 2127.94,-258 2117.94,-254.5 2117.94,-261.5"/>
</g>
<!-- AuthService  -->
<g id="node15" class="node">
<title>AuthService </title>
<polygon fill="#fb8072" stroke="black" points="1517.98,-339 1428.02,-339 1428.02,-303 1517.98,-303 1517.98,-339"/>
<text text-anchor="middle" x="1473" y="-316.8" font-family="Times,serif" font-size="14.00">AuthService </text>
</g>
<!-- AuthModule&#45;&gt;AuthService  -->
<g id="edge15" class="edge">
<title>AuthModule&#45;&gt;AuthService </title>
<path fill="none" stroke="black" stroke-dasharray="5,2" d="M1440.52,-263.01C1440.52,-263.01 1440.52,-292.85 1440.52,-292.85"/>
<polygon fill="black" stroke="black" points="1437.02,-292.85 1440.52,-302.85 1444.02,-292.85 1437.02,-292.85"/>
</g>
<!-- CallUserHistoryModule -->
<g id="node2" class="node">
<title>CallUserHistoryModule</title>
<polygon fill="#8dd3c7" stroke="black" points="690.8,-198 687.8,-202 666.8,-202 663.8,-198 539.2,-198 539.2,-162 690.8,-162 690.8,-198"/>
<text text-anchor="middle" x="615" y="-175.8" font-family="Times,serif" font-size="14.00">CallUserHistoryModule</text>
</g>
<!-- CallUserHistoryModule&#45;&gt;AppModule -->
<g id="edge2" class="edge">
<title>CallUserHistoryModule&#45;&gt;AppModule</title>
<path fill="none" stroke="black" d="M615,-198.15C615,-210.27 615,-224 615,-224 615,-224 2130.37,-224 2130.37,-224 2130.37,-224 2130.37,-224.29 2130.37,-224.29"/>
<polygon fill="black" stroke="black" points="2126.87,-216.92 2130.37,-226.92 2133.87,-216.92 2126.87,-216.92"/>
</g>
<!-- ContactModule -->
<g id="node3" class="node">
<title>ContactModule</title>
<polygon fill="#8dd3c7" stroke="black" points="2111.6,-198 2108.6,-202 2087.6,-202 2084.6,-198 2008.4,-198 2008.4,-162 2111.6,-162 2111.6,-198"/>
<text text-anchor="middle" x="2060" y="-175.8" font-family="Times,serif" font-size="14.00">ContactModule</text>
</g>
<!-- ContactModule&#45;&gt;AppModule -->
<g id="edge3" class="edge">
<title>ContactModule&#45;&gt;AppModule</title>
<path fill="none" stroke="black" d="M2111.98,-186C2128.98,-186 2143.58,-186 2143.58,-186 2143.58,-186 2143.58,-216.98 2143.58,-216.98"/>
<polygon fill="black" stroke="black" points="2140.08,-216.98 2143.58,-226.98 2147.08,-216.98 2140.08,-216.98"/>
</g>
<!-- ContactPersonModule -->
<g id="node4" class="node">
<title>ContactPersonModule</title>
<polygon fill="#8dd3c7" stroke="black" points="1068.7,-198 1065.7,-202 1044.7,-202 1041.7,-198 927.3,-198 927.3,-162 1068.7,-162 1068.7,-198"/>
<text text-anchor="middle" x="998" y="-175.8" font-family="Times,serif" font-size="14.00">ContactPersonModule</text>
</g>
<!-- ContactPersonModule&#45;&gt;AppModule -->
<g id="edge4" class="edge">
<title>ContactPersonModule&#45;&gt;AppModule</title>
<path fill="none" stroke="black" d="M998,-198.32C998,-206.79 998,-215 998,-215 998,-215 2136.98,-215 2136.98,-215 2136.98,-215 2136.98,-216.86 2136.98,-216.86"/>
<polygon fill="black" stroke="black" points="2133.48,-216.86 2136.98,-226.86 2140.48,-216.86 2133.48,-216.86"/>
</g>
<!-- DirectorModule -->
<g id="node5" class="node">
<title>DirectorModule</title>
<polygon fill="#8dd3c7" stroke="black" points="1324.19,-198 1321.19,-202 1300.19,-202 1297.19,-198 1217.81,-198 1217.81,-162 1324.19,-162 1324.19,-198"/>
<text text-anchor="middle" x="1271" y="-175.8" font-family="Times,serif" font-size="14.00">DirectorModule</text>
</g>
<!-- DirectorModule&#45;&gt;AppModule -->
<g id="edge5" class="edge">
<title>DirectorModule&#45;&gt;AppModule</title>
<path fill="none" stroke="black" d="M1304.9,-198.17C1304.9,-200.45 1304.9,-202 1304.9,-202 1304.9,-202 2141.38,-202 2141.38,-202 2141.38,-202 2141.38,-216.51 2141.38,-216.51"/>
<polygon fill="black" stroke="black" points="2137.88,-216.51 2141.38,-226.51 2144.88,-216.51 2137.88,-216.51"/>
</g>
<!-- FiszkaModule -->
<g id="node6" class="node">
<title>FiszkaModule</title>
<polygon fill="#8dd3c7" stroke="black" points="909.1,-198 906.1,-202 885.1,-202 882.1,-198 812.9,-198 812.9,-162 909.1,-162 909.1,-198"/>
<text text-anchor="middle" x="861" y="-175.8" font-family="Times,serif" font-size="14.00">FiszkaModule</text>
</g>
<!-- FiszkaModule&#45;&gt;AppModule -->
<g id="edge6" class="edge">
<title>FiszkaModule&#45;&gt;AppModule</title>
<path fill="none" stroke="black" d="M861,-198.11C861,-207.9 861,-218 861,-218 861,-218 2134.78,-218 2134.78,-218 2134.78,-218 2134.78,-218.88 2134.78,-218.88"/>
<polygon fill="black" stroke="black" points="2131.28,-216.84 2134.78,-226.84 2138.28,-216.84 2131.28,-216.84"/>
</g>
<!-- GroupModule -->
<g id="node7" class="node">
<title>GroupModule</title>
<polygon fill="#8dd3c7" stroke="black" points="1181.82,-198 1178.82,-202 1157.82,-202 1154.82,-198 1086.18,-198 1086.18,-162 1181.82,-162 1181.82,-198"/>
<text text-anchor="middle" x="1134" y="-175.8" font-family="Times,serif" font-size="14.00">GroupModule</text>
</g>
<!-- GroupModule&#45;&gt;GroupModule -->
<g id="edge25" class="edge">
<title>GroupModule&#45;&gt;GroupModule</title>
<path fill="none" stroke="black" d="M1114.28,-161.85C1114.28,-160.7 1114.28,-160 1114.28,-160 1114.28,-160 1077.47,-160 1077.47,-160 1077.47,-160 1077.47,-208 1077.47,-208 1077.47,-208 1118.11,-208 1118.11,-208 1118.11,-208 1118.11,-207.02 1118.11,-207.02"/>
<polygon fill="black" stroke="black" points="1121.61,-208.21 1118.11,-198.21 1114.61,-208.21 1121.61,-208.21"/>
</g>
<!-- GroupModule&#45;&gt;AppModule -->
<g id="edge7" class="edge">
<title>GroupModule&#45;&gt;AppModule</title>
<path fill="none" stroke="black" d="M1149.89,-198.17C1149.89,-202.05 1149.89,-205 1149.89,-205 1149.89,-205 2139.18,-205 2139.18,-205 2139.18,-205 2139.18,-216.87 2139.18,-216.87"/>
<polygon fill="black" stroke="black" points="2135.68,-216.87 2139.18,-226.87 2142.68,-216.87 2135.68,-216.87"/>
</g>
<!-- InterviewsModule -->
<g id="node8" class="node">
<title>InterviewsModule</title>
<polygon fill="#8dd3c7" stroke="black" points="1460.13,-198 1457.13,-202 1436.13,-202 1433.13,-198 1341.87,-198 1341.87,-162 1460.13,-162 1460.13,-198"/>
<text text-anchor="middle" x="1401" y="-175.8" font-family="Times,serif" font-size="14.00">InterviewsModule</text>
</g>
<!-- InterviewsModule&#45;&gt;AppModule -->
<g id="edge8" class="edge">
<title>InterviewsModule&#45;&gt;AppModule</title>
<path fill="none" stroke="black" d="M1456.54,-198.04C1456.54,-219.66 1456.54,-253 1456.54,-253 1456.54,-253 2118.3,-253 2118.3,-253"/>
<polygon fill="black" stroke="black" points="2118.3,-256.5 2128.3,-253 2118.3,-249.5 2118.3,-256.5"/>
</g>
<!-- RentalCostModule -->
<g id="node9" class="node">
<title>RentalCostModule</title>
<polygon fill="#8dd3c7" stroke="black" points="1599.77,-198 1596.77,-202 1575.77,-202 1572.77,-198 1478.23,-198 1478.23,-162 1599.77,-162 1599.77,-198"/>
<text text-anchor="middle" x="1539" y="-175.8" font-family="Times,serif" font-size="14.00">RentalCostModule</text>
</g>
<!-- RentalCostModule&#45;&gt;AppModule -->
<g id="edge9" class="edge">
<title>RentalCostModule&#45;&gt;AppModule</title>
<path fill="none" stroke="black" d="M1558.81,-198.22C1558.81,-218.37 1558.81,-248 1558.81,-248 1558.81,-248 2117.99,-248 2117.99,-248"/>
<polygon fill="black" stroke="black" points="2117.99,-251.5 2127.99,-248 2117.99,-244.5 2117.99,-251.5"/>
</g>
<!-- SchoolModule -->
<g id="node10" class="node">
<title>SchoolModule</title>
<polygon fill="#8dd3c7" stroke="black" points="1716.44,-198 1713.44,-202 1692.44,-202 1689.44,-198 1617.56,-198 1617.56,-162 1716.44,-162 1716.44,-198"/>
<text text-anchor="middle" x="1667" y="-175.8" font-family="Times,serif" font-size="14.00">SchoolModule</text>
</g>
<!-- SchoolModule&#45;&gt;AppModule -->
<g id="edge10" class="edge">
<title>SchoolModule&#45;&gt;AppModule</title>
<path fill="none" stroke="black" d="M1667,-198.22C1667,-216.83 1667,-243 1667,-243 1667,-243 2117.98,-243 2117.98,-243"/>
<polygon fill="black" stroke="black" points="2117.98,-246.5 2127.98,-243 2117.98,-239.5 2117.98,-246.5"/>
</g>
<!-- SheduleDaysModule -->
<g id="node11" class="node">
<title>SheduleDaysModule</title>
<polygon fill="#8dd3c7" stroke="black" points="1867.92,-198 1864.92,-202 1843.92,-202 1840.92,-198 1734.08,-198 1734.08,-162 1867.92,-162 1867.92,-198"/>
<text text-anchor="middle" x="1801" y="-175.8" font-family="Times,serif" font-size="14.00">SheduleDaysModule</text>
</g>
<!-- SheduleDaysModule&#45;&gt;AppModule -->
<g id="edge11" class="edge">
<title>SheduleDaysModule&#45;&gt;AppModule</title>
<path fill="none" stroke="black" d="M1801,-198.03C1801,-215.06 1801,-238 1801,-238 1801,-238 2118.03,-238 2118.03,-238"/>
<polygon fill="black" stroke="black" points="2118.03,-241.5 2128.03,-238 2118.03,-234.5 2118.03,-241.5"/>
</g>
<!-- SheduleModule -->
<g id="node12" class="node">
<title>SheduleModule</title>
<polygon fill="#8dd3c7" stroke="black" points="1990.15,-198 1987.15,-202 1966.15,-202 1963.15,-198 1885.85,-198 1885.85,-162 1990.15,-162 1990.15,-198"/>
<text text-anchor="middle" x="1938" y="-175.8" font-family="Times,serif" font-size="14.00">SheduleModule</text>
</g>
<!-- SheduleModule&#45;&gt;AppModule -->
<g id="edge12" class="edge">
<title>SheduleModule&#45;&gt;AppModule</title>
<path fill="none" stroke="black" d="M1938,-198.24C1938,-213.57 1938,-233 1938,-233 1938,-233 2118.26,-233 2118.26,-233"/>
<polygon fill="black" stroke="black" points="2118.26,-236.5 2128.26,-233 2118.26,-229.5 2118.26,-236.5"/>
</g>
<!-- UserModule -->
<g id="node13" class="node">
<title>UserModule</title>
<polygon fill="#8dd3c7" stroke="black" points="794.98,-198 791.98,-202 770.98,-202 767.98,-198 709.02,-198 709.02,-162 794.98,-162 794.98,-198"/>
<text text-anchor="middle" x="752" y="-175.8" font-family="Times,serif" font-size="14.00">UserModule</text>
</g>
<!-- UserModule&#45;&gt;AuthModule -->
<g id="edge14" class="edge">
<title>UserModule&#45;&gt;AuthModule</title>
<path fill="none" stroke="black" d="M773.49,-198.11C773.49,-217.34 773.49,-245 773.49,-245 773.49,-245 1355.32,-245 1355.32,-245"/>
<polygon fill="black" stroke="black" points="1355.32,-248.5 1365.32,-245 1355.32,-241.5 1355.32,-248.5"/>
</g>
<!-- UserModule&#45;&gt;AppModule -->
<g id="edge13" class="edge">
<title>UserModule&#45;&gt;AppModule</title>
<path fill="none" stroke="black" d="M730.51,-198.1C730.51,-209.09 730.51,-221 730.51,-221 730.51,-221 2132.57,-221 2132.57,-221 2132.57,-221 2132.57,-221.58 2132.57,-221.58"/>
<polygon fill="black" stroke="black" points="2129.07,-216.81 2132.57,-226.81 2136.07,-216.81 2129.07,-216.81"/>
</g>
<!-- PrismaService  -->
<g id="node28" class="node">
<title>PrismaService </title>
<polygon fill="#fb8072" stroke="black" points="2502.36,-198 2401.64,-198 2401.64,-162 2502.36,-162 2502.36,-198"/>
<text text-anchor="middle" x="2452" y="-175.8" font-family="Times,serif" font-size="14.00">PrismaService </text>
</g>
<!-- UserModule&#45;&gt;PrismaService  -->
<g id="edge42" class="edge">
<title>UserModule&#45;&gt;PrismaService </title>
<path fill="none" stroke="black" stroke-dasharray="5,2" d="M752,-198.03C752,-204.85 752,-211 752,-211 752,-211 2452,-211 2452,-211 2452,-211 2452,-208.03 2452,-208.03"/>
<polygon fill="black" stroke="black" points="2455.5,-208.03 2452,-198.03 2448.5,-208.03 2455.5,-208.03"/>
</g>
<!-- AuthService -->
<g id="node16" class="node">
<title>AuthService</title>
<ellipse fill="#fdb462" stroke="black" cx="1345" cy="-321" rx="59.11" ry="18"/>
<text text-anchor="middle" x="1345" y="-316.8" font-family="Times,serif" font-size="14.00">AuthService</text>
</g>
<!-- AuthService&#45;&gt;AuthModule -->
<g id="edge16" class="edge">
<title>AuthService&#45;&gt;AuthModule</title>
<path fill="none" stroke="black" d="M1384.77,-307.41C1384.77,-307.41 1384.77,-273.04 1384.77,-273.04"/>
<polygon fill="black" stroke="black" points="1388.27,-273.04 1384.77,-263.04 1381.27,-273.04 1388.27,-273.04"/>
</g>
<!-- CallUserHistoryService -->
<g id="node17" class="node">
<title>CallUserHistoryService</title>
<ellipse fill="#fdb462" stroke="black" cx="127" cy="-104" rx="103.06" ry="18"/>
<text text-anchor="middle" x="127" y="-99.8" font-family="Times,serif" font-size="14.00">CallUserHistoryService</text>
</g>
<!-- CallUserHistoryService&#45;&gt;CallUserHistoryModule -->
<g id="edge17" class="edge">
<title>CallUserHistoryService&#45;&gt;CallUserHistoryModule</title>
<path fill="none" stroke="black" d="M127,-122.01C127,-144.49 127,-180 127,-180 127,-180 529.29,-180 529.29,-180"/>
<polygon fill="black" stroke="black" points="529.29,-183.5 539.29,-180 529.29,-176.5 529.29,-183.5"/>
</g>
<!-- PrismaModule -->
<g id="node18" class="node">
<title>PrismaModule</title>
<polygon fill="#8dd3c7" stroke="black" points="2244.43,-122 2241.43,-126 2220.43,-126 2217.43,-122 2145.57,-122 2145.57,-86 2244.43,-86 2244.43,-122"/>
<text text-anchor="middle" x="2195" y="-99.8" font-family="Times,serif" font-size="14.00">PrismaModule</text>
</g>
<!-- PrismaModule&#45;&gt;ContactModule -->
<g id="edge18" class="edge">
<title>PrismaModule&#45;&gt;ContactModule</title>
<path fill="none" stroke="black" d="M2204.49,-122.03C2204.49,-142.77 2204.49,-174 2204.49,-174 2204.49,-174 2121.76,-174 2121.76,-174"/>
<polygon fill="black" stroke="black" points="2121.76,-170.5 2111.76,-174 2121.76,-177.5 2121.76,-170.5"/>
</g>
<!-- PrismaModule&#45;&gt;ContactPersonModule -->
<g id="edge20" class="edge">
<title>PrismaModule&#45;&gt;ContactPersonModule</title>
<path fill="none" stroke="black" d="M2153.12,-122.17C2153.12,-126.05 2153.12,-129 2153.12,-129 2153.12,-129 1054.33,-129 1054.33,-129 1054.33,-129 1054.33,-151.88 1054.33,-151.88"/>
<polygon fill="black" stroke="black" points="1050.83,-151.88 1054.33,-161.88 1057.83,-151.88 1050.83,-151.88"/>
</g>
<!-- PrismaModule&#45;&gt;DirectorModule -->
<g id="edge22" class="edge">
<title>PrismaModule&#45;&gt;DirectorModule</title>
<path fill="none" stroke="black" d="M2160.46,-122.16C2160.46,-127.04 2160.46,-131 2160.46,-131 2160.46,-131 1287.13,-131 1287.13,-131 1287.13,-131 1287.13,-151.75 1287.13,-151.75"/>
<polygon fill="black" stroke="black" points="1283.63,-151.75 1287.13,-161.75 1290.63,-151.75 1283.63,-151.75"/>
</g>
<!-- PrismaModule&#45;&gt;InterviewsModule -->
<g id="edge27" class="edge">
<title>PrismaModule&#45;&gt;InterviewsModule</title>
<path fill="none" stroke="black" d="M2167.8,-122.14C2167.8,-128.46 2167.8,-134 2167.8,-134 2167.8,-134 1411.2,-134 1411.2,-134 1411.2,-134 1411.2,-151.82 1411.2,-151.82"/>
<polygon fill="black" stroke="black" points="1407.7,-151.82 1411.2,-161.82 1414.7,-151.82 1407.7,-151.82"/>
</g>
<!-- PrismaModule&#45;&gt;RentalCostModule -->
<g id="edge34" class="edge">
<title>PrismaModule&#45;&gt;RentalCostModule</title>
<path fill="none" stroke="black" d="M2175.14,-122.24C2175.14,-129.43 2175.14,-136 2175.14,-136 2175.14,-136 1584.03,-136 1584.03,-136 1584.03,-136 1584.03,-151.85 1584.03,-151.85"/>
<polygon fill="black" stroke="black" points="1580.53,-151.85 1584.03,-161.85 1587.53,-151.85 1580.53,-151.85"/>
</g>
<!-- PrismaModule&#45;&gt;SchoolModule -->
<g id="edge36" class="edge">
<title>PrismaModule&#45;&gt;SchoolModule</title>
<path fill="none" stroke="black" d="M2182.47,-122.19C2182.47,-130.28 2182.47,-138 2182.47,-138 2182.47,-138 1709.02,-138 1709.02,-138 1709.02,-138 1709.02,-151.94 1709.02,-151.94"/>
<polygon fill="black" stroke="black" points="1705.52,-151.94 1709.02,-161.94 1712.52,-151.94 1705.52,-151.94"/>
</g>
<!-- PrismaModule&#45;&gt;SheduleDaysModule -->
<g id="edge38" class="edge">
<title>PrismaModule&#45;&gt;SheduleDaysModule</title>
<path fill="none" stroke="black" d="M2189.81,-122.42C2189.81,-131.28 2189.81,-140 2189.81,-140 2189.81,-140 1825.82,-140 1825.82,-140 1825.82,-140 1825.82,-151.87 1825.82,-151.87"/>
<polygon fill="black" stroke="black" points="1822.32,-151.87 1825.82,-161.87 1829.32,-151.87 1822.32,-151.87"/>
</g>
<!-- PrismaModule&#45;&gt;SheduleModule -->
<g id="edge40" class="edge">
<title>PrismaModule&#45;&gt;SheduleModule</title>
<path fill="none" stroke="black" d="M2197.15,-122.49C2197.15,-134.14 2197.15,-147 2197.15,-147 2197.15,-147 1981.52,-147 1981.52,-147 1981.52,-147 1981.52,-151.96 1981.52,-151.96"/>
<polygon fill="black" stroke="black" points="1978.02,-151.96 1981.52,-161.96 1985.02,-151.96 1978.02,-151.96"/>
</g>
<!-- PredicteModule -->
<g id="node26" class="node">
<title>PredicteModule</title>
<polygon fill="#8dd3c7" stroke="black" points="2652.92,-198 2649.92,-202 2628.92,-202 2625.92,-198 2547.08,-198 2547.08,-162 2652.92,-162 2652.92,-198"/>
<text text-anchor="middle" x="2600" y="-175.8" font-family="Times,serif" font-size="14.00">PredicteModule</text>
</g>
<!-- PrismaModule&#45;&gt;PredicteModule -->
<g id="edge30" class="edge">
<title>PrismaModule&#45;&gt;PredicteModule</title>
<path fill="none" stroke="black" d="M2233.4,-122.08C2233.4,-123.85 2233.4,-125 2233.4,-125 2233.4,-125 2582.43,-125 2582.43,-125 2582.43,-125 2582.43,-151.99 2582.43,-151.99"/>
<polygon fill="black" stroke="black" points="2578.93,-151.99 2582.43,-161.99 2585.93,-151.99 2578.93,-151.99"/>
</g>
<!-- PrismaModule&#45;&gt;PrismaService  -->
<g id="edge32" class="edge">
<title>PrismaModule&#45;&gt;PrismaService </title>
<path fill="none" stroke="black" stroke-dasharray="5,2" d="M2222.61,-122.04C2222.61,-135.29 2222.61,-151 2222.61,-151 2222.61,-151 2455.11,-151 2455.11,-151 2455.11,-151 2455.11,-152.08 2455.11,-152.08"/>
<polygon fill="black" stroke="black" points="2451.61,-151.8 2455.11,-161.8 2458.61,-151.8 2451.61,-151.8"/>
</g>
<!-- ContactService -->
<g id="node19" class="node">
<title>ContactService</title>
<ellipse fill="#fdb462" stroke="black" cx="2338" cy="-104" rx="70.06" ry="18"/>
<text text-anchor="middle" x="2338" y="-99.8" font-family="Times,serif" font-size="14.00">ContactService</text>
</g>
<!-- ContactService&#45;&gt;ContactModule -->
<g id="edge19" class="edge">
<title>ContactService&#45;&gt;ContactModule</title>
<path fill="none" stroke="black" d="M2322.89,-121.79C2322.89,-134.36 2322.89,-149 2322.89,-149 2322.89,-149 2057.28,-149 2057.28,-149 2057.28,-149 2057.28,-151.97 2057.28,-151.97"/>
<polygon fill="black" stroke="black" points="2053.78,-151.97 2057.28,-161.97 2060.78,-151.97 2053.78,-151.97"/>
</g>
<!-- ContactPersonService -->
<g id="node20" class="node">
<title>ContactPersonService</title>
<ellipse fill="#fdb462" stroke="black" cx="366" cy="-104" rx="96.12" ry="18"/>
<text text-anchor="middle" x="366" y="-99.8" font-family="Times,serif" font-size="14.00">ContactPersonService</text>
</g>
<!-- ContactPersonService&#45;&gt;ContactPersonModule -->
<g id="edge21" class="edge">
<title>ContactPersonService&#45;&gt;ContactPersonModule</title>
<path fill="none" stroke="black" d="M366,-122.28C366,-137.95 366,-158 366,-158 366,-158 946.82,-158 946.82,-158 946.82,-158 946.82,-158.38 946.82,-158.38"/>
<polygon fill="black" stroke="black" points="943.32,-151.83 946.82,-161.83 950.32,-151.83 943.32,-151.83"/>
</g>
<!-- DirectorService -->
<g id="node21" class="node">
<title>DirectorService</title>
<ellipse fill="#fdb462" stroke="black" cx="574" cy="-104" rx="72.32" ry="18"/>
<text text-anchor="middle" x="574" y="-99.8" font-family="Times,serif" font-size="14.00">DirectorService</text>
</g>
<!-- DirectorService&#45;&gt;DirectorModule -->
<g id="edge23" class="edge">
<title>DirectorService&#45;&gt;DirectorModule</title>
<path fill="none" stroke="black" d="M592.76,-121.63C592.76,-132.74 592.76,-145 592.76,-145 592.76,-145 1252.52,-145 1252.52,-145 1252.52,-145 1252.52,-151.68 1252.52,-151.68"/>
<polygon fill="black" stroke="black" points="1249.02,-151.68 1252.52,-161.68 1256.02,-151.68 1249.02,-151.68"/>
</g>
<!-- FiszkaService -->
<g id="node22" class="node">
<title>FiszkaService</title>
<ellipse fill="#fdb462" stroke="black" cx="751" cy="-104" rx="65.4" ry="18"/>
<text text-anchor="middle" x="751" y="-99.8" font-family="Times,serif" font-size="14.00">FiszkaService</text>
</g>
<!-- FiszkaService&#45;&gt;FiszkaModule -->
<g id="edge24" class="edge">
<title>FiszkaService&#45;&gt;FiszkaModule</title>
<path fill="none" stroke="black" d="M803.97,-114.57C803.97,-135.45 803.97,-180 803.97,-180 803.97,-180 804.86,-180 804.86,-180"/>
<polygon fill="black" stroke="black" points="802.88,-183.5 812.88,-180 802.88,-176.5 802.88,-183.5"/>
</g>
<!-- GroupService -->
<g id="node23" class="node">
<title>GroupService</title>
<ellipse fill="#fdb462" stroke="black" cx="921" cy="-104" rx="64.83" ry="18"/>
<text text-anchor="middle" x="921" y="-99.8" font-family="Times,serif" font-size="14.00">GroupService</text>
</g>
<!-- GroupService&#45;&gt;GroupModule -->
<g id="edge26" class="edge">
<title>GroupService&#45;&gt;GroupModule</title>
<path fill="none" stroke="black" d="M966.24,-117.12C966.24,-132.53 966.24,-156 966.24,-156 966.24,-156 1100.31,-156 1100.31,-156 1100.31,-156 1100.31,-156.58 1100.31,-156.58"/>
<polygon fill="black" stroke="black" points="1096.81,-151.81 1100.31,-161.81 1103.81,-151.81 1096.81,-151.81"/>
</g>
<!-- InterviewsService -->
<g id="node24" class="node">
<title>InterviewsService</title>
<ellipse fill="#fdb462" stroke="black" cx="1241" cy="-104" rx="80.99" ry="18"/>
<text text-anchor="middle" x="1241" y="-99.8" font-family="Times,serif" font-size="14.00">InterviewsService</text>
</g>
<!-- InterviewsService&#45;&gt;InterviewsModule -->
<g id="edge28" class="edge">
<title>InterviewsService&#45;&gt;InterviewsModule</title>
<path fill="none" stroke="black" d="M1321.92,-104C1340.69,-104 1355.29,-104 1355.29,-104 1355.29,-104 1355.29,-151.99 1355.29,-151.99"/>
<polygon fill="black" stroke="black" points="1351.79,-151.99 1355.29,-161.99 1358.79,-151.99 1351.79,-151.99"/>
</g>
<!-- UserService -->
<g id="node25" class="node">
<title>UserService</title>
<ellipse fill="#fdb462" stroke="black" cx="1084" cy="-104" rx="58.44" ry="18"/>
<text text-anchor="middle" x="1084" y="-99.8" font-family="Times,serif" font-size="14.00">UserService</text>
</g>
<!-- UserService&#45;&gt;InterviewsModule -->
<g id="edge29" class="edge">
<title>UserService&#45;&gt;InterviewsModule</title>
<path fill="none" stroke="black" d="M1128.25,-116.02C1128.25,-127.16 1128.25,-142 1128.25,-142 1128.25,-142 1348.49,-142 1348.49,-142 1348.49,-142 1348.49,-151.89 1348.49,-151.89"/>
<polygon fill="black" stroke="black" points="1344.99,-151.89 1348.49,-161.89 1351.99,-151.89 1344.99,-151.89"/>
</g>
<!-- UserService&#45;&gt;UserModule -->
<g id="edge44" class="edge">
<title>UserService&#45;&gt;UserModule</title>
<path fill="none" stroke="black" d="M1040.05,-116.04C1040.05,-121.6 1040.05,-127 1040.05,-127 1040.05,-127 737.67,-127 737.67,-127 737.67,-127 737.67,-151.76 737.67,-151.76"/>
<polygon fill="black" stroke="black" points="734.17,-151.76 737.67,-161.76 741.17,-151.76 734.17,-151.76"/>
</g>
<!-- PredicteService -->
<g id="node27" class="node">
<title>PredicteService</title>
<ellipse fill="#fdb462" stroke="black" cx="2614" cy="-104" rx="71.76" ry="18"/>
<text text-anchor="middle" x="2614" y="-99.8" font-family="Times,serif" font-size="14.00">PredicteService</text>
</g>
<!-- PredicteService&#45;&gt;PredicteModule -->
<g id="edge31" class="edge">
<title>PredicteService&#45;&gt;PredicteModule</title>
<path fill="none" stroke="black" d="M2617.57,-122.01C2617.57,-122.01 2617.57,-151.85 2617.57,-151.85"/>
<polygon fill="black" stroke="black" points="2614.07,-151.85 2617.57,-161.85 2621.07,-151.85 2614.07,-151.85"/>
</g>
<!-- PrismaService -->
<g id="node29" class="node">
<title>PrismaService</title>
<ellipse fill="#fdb462" stroke="black" cx="2311" cy="-180" rx="66.63" ry="18"/>
<text text-anchor="middle" x="2311" y="-175.8" font-family="Times,serif" font-size="14.00">PrismaService</text>
</g>
<!-- PrismaService&#45;&gt;UserModule -->
<g id="edge43" class="edge">
<title>PrismaService&#45;&gt;UserModule</title>
<path fill="none" stroke="black" d="M2260.05,-168.22C2260.05,-161.34 2260.05,-154 2260.05,-154 2260.05,-154 766.33,-154 766.33,-154 766.33,-154 766.33,-154.79 766.33,-154.79"/>
<polygon fill="black" stroke="black" points="762.83,-151.94 766.33,-161.94 769.83,-151.94 762.83,-151.94"/>
</g>
<!-- PrismaService&#45;&gt;PrismaModule -->
<g id="edge33" class="edge">
<title>PrismaService&#45;&gt;PrismaModule</title>
<path fill="none" stroke="black" d="M2252.13,-171.28C2252.13,-151.32 2252.13,-104 2252.13,-104 2252.13,-104 2251.39,-104 2251.39,-104"/>
<polygon fill="black" stroke="black" points="2254.67,-100.5 2244.67,-104 2254.67,-107.5 2254.67,-100.5"/>
</g>
<!-- RentalCostService -->
<g id="node30" class="node">
<title>RentalCostService</title>
<ellipse fill="#fdb462" stroke="black" cx="1445" cy="-104" rx="82.82" ry="18"/>
<text text-anchor="middle" x="1445" y="-99.8" font-family="Times,serif" font-size="14.00">RentalCostService</text>
</g>
<!-- RentalCostService&#45;&gt;RentalCostModule -->
<g id="edge35" class="edge">
<title>RentalCostService&#45;&gt;RentalCostModule</title>
<path fill="none" stroke="black" d="M1503.01,-116.89C1503.01,-116.89 1503.01,-151.91 1503.01,-151.91"/>
<polygon fill="black" stroke="black" points="1499.51,-151.91 1503.01,-161.91 1506.51,-151.91 1499.51,-151.91"/>
</g>
<!-- SchoolService -->
<g id="node31" class="node">
<title>SchoolService</title>
<ellipse fill="#fdb462" stroke="black" cx="1635" cy="-104" rx="66.63" ry="18"/>
<text text-anchor="middle" x="1635" y="-99.8" font-family="Times,serif" font-size="14.00">SchoolService</text>
</g>
<!-- SchoolService&#45;&gt;SchoolModule -->
<g id="edge37" class="edge">
<title>SchoolService&#45;&gt;SchoolModule</title>
<path fill="none" stroke="black" d="M1659.8,-120.87C1659.8,-120.87 1659.8,-151.85 1659.8,-151.85"/>
<polygon fill="black" stroke="black" points="1656.3,-151.85 1659.8,-161.85 1663.3,-151.85 1656.3,-151.85"/>
</g>
<!-- SheduleDaysService -->
<g id="node32" class="node">
<title>SheduleDaysService</title>
<ellipse fill="#fdb462" stroke="black" cx="1833" cy="-104" rx="90.89" ry="18"/>
<text text-anchor="middle" x="1833" y="-99.8" font-family="Times,serif" font-size="14.00">SheduleDaysService</text>
</g>
<!-- SheduleDaysService&#45;&gt;SheduleDaysModule -->
<g id="edge39" class="edge">
<title>SheduleDaysService&#45;&gt;SheduleDaysModule</title>
<path fill="none" stroke="black" d="M1783.94,-119.38C1783.94,-119.38 1783.94,-151.97 1783.94,-151.97"/>
<polygon fill="black" stroke="black" points="1780.44,-151.97 1783.94,-161.97 1787.44,-151.97 1780.44,-151.97"/>
</g>
<!-- SheduleService -->
<g id="node33" class="node">
<title>SheduleService</title>
<ellipse fill="#fdb462" stroke="black" cx="2035" cy="-104" rx="71.21" ry="18"/>
<text text-anchor="middle" x="2035" y="-99.8" font-family="Times,serif" font-size="14.00">SheduleService</text>
</g>
<!-- SheduleService&#45;&gt;SheduleModule -->
<g id="edge41" class="edge">
<title>SheduleService&#45;&gt;SheduleModule</title>
<path fill="none" stroke="black" d="M1972.71,-112.72C1972.71,-112.72 1972.71,-151.88 1972.71,-151.88"/>
<polygon fill="black" stroke="black" points="1969.21,-151.88 1972.71,-161.88 1976.21,-151.88 1969.21,-151.88"/>
</g>
</g>
</svg>
