<?xml version="1.0" encoding="UTF-8" standalone="no"?>
<!DOCTYPE svg PUBLIC "-//W3C//DTD SVG 1.1//EN"
 "http://www.w3.org/Graphics/SVG/1.1/DTD/svg11.dtd">
<!-- Generated by graphviz version 2.47.0 (20210316.0004)
 -->
<!-- Title: dependencies Pages: 1 -->
<svg width="1715pt" height="211pt"
 viewBox="0.00 0.00 1715.00 211.00" xmlns="http://www.w3.org/2000/svg" xmlns:xlink="http://www.w3.org/1999/xlink">
<g id="graph0" class="graph" transform="scale(1 1) rotate(0) translate(4 207)">
<title>dependencies</title>
<polygon fill="white" stroke="transparent" points="-4,4 -4,-207 1711,-207 1711,4 -4,4"/>
<text text-anchor="start" x="832.51" y="-42.4" font-family="Times-12" font-weight="bold" font-size="14.00">Legend</text>
<polygon fill="#ffffb3" stroke="transparent" points="619.5,-10 619.5,-30 639.5,-30 639.5,-10 619.5,-10"/>
<text text-anchor="start" x="643.13" y="-15.4" font-family="Times-12" font-size="14.00"> &#160;Declarations</text>
<polygon fill="#8dd3c7" stroke="transparent" points="732.5,-10 732.5,-30 752.5,-30 752.5,-10 732.5,-10"/>
<text text-anchor="start" x="756.23" y="-15.4" font-family="Times-12" font-size="14.00"> &#160;Module</text>
<polygon fill="#80b1d3" stroke="transparent" points="818.5,-10 818.5,-30 838.5,-30 838.5,-10 818.5,-10"/>
<text text-anchor="start" x="842.28" y="-15.4" font-family="Times-12" font-size="14.00"> &#160;Bootstrap</text>
<polygon fill="#fdb462" stroke="transparent" points="915.5,-10 915.5,-30 935.5,-30 935.5,-10 915.5,-10"/>
<text text-anchor="start" x="939.17" y="-15.4" font-family="Times-12" font-size="14.00"> &#160;Providers</text>
<polygon fill="#fb8072" stroke="transparent" points="1011.5,-10 1011.5,-30 1031.5,-30 1031.5,-10 1011.5,-10"/>
<text text-anchor="start" x="1035.23" y="-15.4" font-family="Times-12" font-size="14.00"> &#160;Exports</text>
<g id="clust1" class="cluster">
<title>cluster_AppModule</title>
<polygon fill="none" stroke="black" stroke-dasharray="1,5" points="8,-70 8,-195 1699,-195 1699,-70 8,-70"/>
</g>
<g id="clust3" class="cluster">
<title>cluster_AppModule_imports</title>
<polygon fill="none" stroke="black" points="16,-78 16,-130 1691,-130 1691,-78 16,-78"/>
</g>
<!-- AuthModule -->
<g id="node1" class="node">
<title>AuthModule</title>
<polygon fill="#8dd3c7" stroke="black" points="1682.55,-122 1679.55,-126 1658.55,-126 1655.55,-122 1595.45,-122 1595.45,-86 1682.55,-86 1682.55,-122"/>
<text text-anchor="middle" x="1639" y="-99.8" font-family="Times,serif" font-size="14.00">AuthModule</text>
</g>
<!-- AppModule -->
<g id="node14" class="node">
<title>AppModule</title>
<polygon fill="#8dd3c7" stroke="black" points="883.66,-187 880.66,-191 859.66,-191 856.66,-187 800.34,-187 800.34,-151 883.66,-151 883.66,-187"/>
<text text-anchor="middle" x="842" y="-164.8" font-family="Times,serif" font-size="14.00">AppModule</text>
</g>
<!-- AuthModule&#45;&gt;AppModule -->
<g id="edge1" class="edge">
<title>AuthModule&#45;&gt;AppModule</title>
<path fill="none" stroke="black" d="M1639,-122.09C1639,-145.13 1639,-182 1639,-182 1639,-182 893.73,-182 893.73,-182"/>
<polygon fill="black" stroke="black" points="893.73,-178.5 883.73,-182 893.73,-185.5 893.73,-178.5"/>
</g>
<!-- CallUserHistoryModule -->
<g id="node2" class="node">
<title>CallUserHistoryModule</title>
<polygon fill="#8dd3c7" stroke="black" points="1577.8,-122 1574.8,-126 1553.8,-126 1550.8,-122 1426.2,-122 1426.2,-86 1577.8,-86 1577.8,-122"/>
<text text-anchor="middle" x="1502" y="-99.8" font-family="Times,serif" font-size="14.00">CallUserHistoryModule</text>
</g>
<!-- CallUserHistoryModule&#45;&gt;AppModule -->
<g id="edge2" class="edge">
<title>CallUserHistoryModule&#45;&gt;AppModule</title>
<path fill="none" stroke="black" d="M1502,-122.04C1502,-143.66 1502,-177 1502,-177 1502,-177 893.79,-177 893.79,-177"/>
<polygon fill="black" stroke="black" points="893.79,-173.5 883.79,-177 893.79,-180.5 893.79,-173.5"/>
</g>
<!-- ContactModule -->
<g id="node3" class="node">
<title>ContactModule</title>
<polygon fill="#8dd3c7" stroke="black" points="1408.6,-122 1405.6,-126 1384.6,-126 1381.6,-122 1305.4,-122 1305.4,-86 1408.6,-86 1408.6,-122"/>
<text text-anchor="middle" x="1357" y="-99.8" font-family="Times,serif" font-size="14.00">ContactModule</text>
</g>
<!-- ContactModule&#45;&gt;AppModule -->
<g id="edge3" class="edge">
<title>ContactModule&#45;&gt;AppModule</title>
<path fill="none" stroke="black" d="M1357,-122.22C1357,-142.37 1357,-172 1357,-172 1357,-172 893.71,-172 893.71,-172"/>
<polygon fill="black" stroke="black" points="893.71,-168.5 883.71,-172 893.71,-175.5 893.71,-168.5"/>
</g>
<!-- ContactPersonModule -->
<g id="node4" class="node">
<title>ContactPersonModule</title>
<polygon fill="#8dd3c7" stroke="black" points="1287.7,-122 1284.7,-126 1263.7,-126 1260.7,-122 1146.3,-122 1146.3,-86 1287.7,-86 1287.7,-122"/>
<text text-anchor="middle" x="1217" y="-99.8" font-family="Times,serif" font-size="14.00">ContactPersonModule</text>
</g>
<!-- ContactPersonModule&#45;&gt;AppModule -->
<g id="edge4" class="edge">
<title>ContactPersonModule&#45;&gt;AppModule</title>
<path fill="none" stroke="black" d="M1217,-122.22C1217,-140.83 1217,-167 1217,-167 1217,-167 893.93,-167 893.93,-167"/>
<polygon fill="black" stroke="black" points="893.93,-163.5 883.93,-167 893.93,-170.5 893.93,-163.5"/>
</g>
<!-- DirectorModule -->
<g id="node5" class="node">
<title>DirectorModule</title>
<polygon fill="#8dd3c7" stroke="black" points="1128.19,-122 1125.19,-126 1104.19,-126 1101.19,-122 1021.81,-122 1021.81,-86 1128.19,-86 1128.19,-122"/>
<text text-anchor="middle" x="1075" y="-99.8" font-family="Times,serif" font-size="14.00">DirectorModule</text>
</g>
<!-- DirectorModule&#45;&gt;AppModule -->
<g id="edge5" class="edge">
<title>DirectorModule&#45;&gt;AppModule</title>
<path fill="none" stroke="black" d="M1075,-122.03C1075,-139.06 1075,-162 1075,-162 1075,-162 893.92,-162 893.92,-162"/>
<polygon fill="black" stroke="black" points="893.92,-158.5 883.92,-162 893.92,-165.5 893.92,-158.5"/>
</g>
<!-- FiszkaModule -->
<g id="node6" class="node">
<title>FiszkaModule</title>
<polygon fill="#8dd3c7" stroke="black" points="1004.1,-122 1001.1,-126 980.1,-126 977.1,-122 907.9,-122 907.9,-86 1004.1,-86 1004.1,-122"/>
<text text-anchor="middle" x="956" y="-99.8" font-family="Times,serif" font-size="14.00">FiszkaModule</text>
</g>
<!-- FiszkaModule&#45;&gt;AppModule -->
<g id="edge6" class="edge">
<title>FiszkaModule&#45;&gt;AppModule</title>
<path fill="none" stroke="black" d="M956,-122.24C956,-137.57 956,-157 956,-157 956,-157 893.8,-157 893.8,-157"/>
<polygon fill="black" stroke="black" points="893.8,-153.5 883.8,-157 893.8,-160.5 893.8,-153.5"/>
</g>
<!-- GroupModule -->
<g id="node7" class="node">
<title>GroupModule</title>
<polygon fill="#8dd3c7" stroke="black" points="889.82,-122 886.82,-126 865.82,-126 862.82,-122 794.18,-122 794.18,-86 889.82,-86 889.82,-122"/>
<text text-anchor="middle" x="842" y="-99.8" font-family="Times,serif" font-size="14.00">GroupModule</text>
</g>
<!-- GroupModule&#45;&gt;AppModule -->
<g id="edge7" class="edge">
<title>GroupModule&#45;&gt;AppModule</title>
<path fill="none" stroke="black" d="M842,-122.11C842,-122.11 842,-140.99 842,-140.99"/>
<polygon fill="black" stroke="black" points="838.5,-140.99 842,-150.99 845.5,-140.99 838.5,-140.99"/>
</g>
<!-- InterviewsModule -->
<g id="node8" class="node">
<title>InterviewsModule</title>
<polygon fill="#8dd3c7" stroke="black" points="776.13,-122 773.13,-126 752.13,-126 749.13,-122 657.87,-122 657.87,-86 776.13,-86 776.13,-122"/>
<text text-anchor="middle" x="717" y="-99.8" font-family="Times,serif" font-size="14.00">InterviewsModule</text>
</g>
<!-- InterviewsModule&#45;&gt;AppModule -->
<g id="edge8" class="edge">
<title>InterviewsModule&#45;&gt;AppModule</title>
<path fill="none" stroke="black" d="M717,-122.24C717,-137.57 717,-157 717,-157 717,-157 790.03,-157 790.03,-157"/>
<polygon fill="black" stroke="black" points="790.03,-160.5 800.03,-157 790.03,-153.5 790.03,-160.5"/>
</g>
<!-- RentalCostModule -->
<g id="node9" class="node">
<title>RentalCostModule</title>
<polygon fill="#8dd3c7" stroke="black" points="639.77,-122 636.77,-126 615.77,-126 612.77,-122 518.23,-122 518.23,-86 639.77,-86 639.77,-122"/>
<text text-anchor="middle" x="579" y="-99.8" font-family="Times,serif" font-size="14.00">RentalCostModule</text>
</g>
<!-- RentalCostModule&#45;&gt;AppModule -->
<g id="edge9" class="edge">
<title>RentalCostModule&#45;&gt;AppModule</title>
<path fill="none" stroke="black" d="M579,-122.03C579,-139.06 579,-162 579,-162 579,-162 790.33,-162 790.33,-162"/>
<polygon fill="black" stroke="black" points="790.33,-165.5 800.33,-162 790.33,-158.5 790.33,-165.5"/>
</g>
<!-- SchoolModule -->
<g id="node10" class="node">
<title>SchoolModule</title>
<polygon fill="#8dd3c7" stroke="black" points="500.44,-122 497.44,-126 476.44,-126 473.44,-122 401.56,-122 401.56,-86 500.44,-86 500.44,-122"/>
<text text-anchor="middle" x="451" y="-99.8" font-family="Times,serif" font-size="14.00">SchoolModule</text>
</g>
<!-- SchoolModule&#45;&gt;AppModule -->
<g id="edge10" class="edge">
<title>SchoolModule&#45;&gt;AppModule</title>
<path fill="none" stroke="black" d="M451,-122.22C451,-140.83 451,-167 451,-167 451,-167 790.16,-167 790.16,-167"/>
<polygon fill="black" stroke="black" points="790.16,-170.5 800.16,-167 790.16,-163.5 790.16,-170.5"/>
</g>
<!-- SheduleDaysModule -->
<g id="node11" class="node">
<title>SheduleDaysModule</title>
<polygon fill="#8dd3c7" stroke="black" points="383.92,-122 380.92,-126 359.92,-126 356.92,-122 250.08,-122 250.08,-86 383.92,-86 383.92,-122"/>
<text text-anchor="middle" x="317" y="-99.8" font-family="Times,serif" font-size="14.00">SheduleDaysModule</text>
</g>
<!-- SheduleDaysModule&#45;&gt;AppModule -->
<g id="edge11" class="edge">
<title>SheduleDaysModule&#45;&gt;AppModule</title>
<path fill="none" stroke="black" d="M317,-122.22C317,-142.37 317,-172 317,-172 317,-172 789.92,-172 789.92,-172"/>
<polygon fill="black" stroke="black" points="789.92,-175.5 799.92,-172 789.92,-168.5 789.92,-175.5"/>
</g>
<!-- SheduleModule -->
<g id="node12" class="node">
<title>SheduleModule</title>
<polygon fill="#8dd3c7" stroke="black" points="232.15,-122 229.15,-126 208.15,-126 205.15,-122 127.85,-122 127.85,-86 232.15,-86 232.15,-122"/>
<text text-anchor="middle" x="180" y="-99.8" font-family="Times,serif" font-size="14.00">SheduleModule</text>
</g>
<!-- SheduleModule&#45;&gt;AppModule -->
<g id="edge12" class="edge">
<title>SheduleModule&#45;&gt;AppModule</title>
<path fill="none" stroke="black" d="M180,-122.04C180,-143.66 180,-177 180,-177 180,-177 790.34,-177 790.34,-177"/>
<polygon fill="black" stroke="black" points="790.34,-180.5 800.34,-177 790.34,-173.5 790.34,-180.5"/>
</g>
<!-- UserModule -->
<g id="node13" class="node">
<title>UserModule</title>
<polygon fill="#8dd3c7" stroke="black" points="109.98,-122 106.98,-126 85.98,-126 82.98,-122 24.02,-122 24.02,-86 109.98,-86 109.98,-122"/>
<text text-anchor="middle" x="67" y="-99.8" font-family="Times,serif" font-size="14.00">UserModule</text>
</g>
<!-- UserModule&#45;&gt;AppModule -->
<g id="edge13" class="edge">
<title>UserModule&#45;&gt;AppModule</title>
<path fill="none" stroke="black" d="M67,-122.09C67,-145.13 67,-182 67,-182 67,-182 790.33,-182 790.33,-182"/>
<polygon fill="black" stroke="black" points="790.33,-185.5 800.33,-182 790.33,-178.5 790.33,-185.5"/>
</g>
</g>
</svg>
