<?xml version="1.0" encoding="UTF-8" standalone="no"?>
<!DOCTYPE svg PUBLIC "-//W3C//DTD SVG 1.1//EN"
 "http://www.w3.org/Graphics/SVG/1.1/DTD/svg11.dtd">
<!-- Generated by graphviz version 2.47.0 (20210316.0004)
 -->
<!-- Title: dependencies Pages: 1 -->
<svg width="1846pt" height="211pt"
 viewBox="0.00 0.00 1846.00 211.00" xmlns="http://www.w3.org/2000/svg" xmlns:xlink="http://www.w3.org/1999/xlink">
<g id="graph0" class="graph" transform="scale(1 1) rotate(0) translate(4 207)">
<title>dependencies</title>
<polygon fill="white" stroke="transparent" points="-4,4 -4,-207 1842,-207 1842,4 -4,4"/>
<text text-anchor="start" x="898.01" y="-42.4" font-family="Times-12" font-weight="bold" font-size="14.00">Legend</text>
<polygon fill="#ffffb3" stroke="transparent" points="685,-10 685,-30 705,-30 705,-10 685,-10"/>
<text text-anchor="start" x="708.63" y="-15.4" font-family="Times-12" font-size="14.00"> &#160;Declarations</text>
<polygon fill="#8dd3c7" stroke="transparent" points="798,-10 798,-30 818,-30 818,-10 798,-10"/>
<text text-anchor="start" x="821.73" y="-15.4" font-family="Times-12" font-size="14.00"> &#160;Module</text>
<polygon fill="#80b1d3" stroke="transparent" points="884,-10 884,-30 904,-30 904,-10 884,-10"/>
<text text-anchor="start" x="907.78" y="-15.4" font-family="Times-12" font-size="14.00"> &#160;Bootstrap</text>
<polygon fill="#fdb462" stroke="transparent" points="981,-10 981,-30 1001,-30 1001,-10 981,-10"/>
<text text-anchor="start" x="1004.67" y="-15.4" font-family="Times-12" font-size="14.00"> &#160;Providers</text>
<polygon fill="#fb8072" stroke="transparent" points="1077,-10 1077,-30 1097,-30 1097,-10 1077,-10"/>
<text text-anchor="start" x="1100.73" y="-15.4" font-family="Times-12" font-size="14.00"> &#160;Exports</text>
<g id="clust1" class="cluster">
<title>cluster_AppModule</title>
<polygon fill="none" stroke="black" stroke-dasharray="1,5" points="8,-70 8,-195 1830,-195 1830,-70 8,-70"/>
</g>
<g id="clust3" class="cluster">
<title>cluster_AppModule_imports</title>
<polygon fill="none" stroke="black" points="16,-78 16,-130 1822,-130 1822,-78 16,-78"/>
</g>
<!-- AuthModule -->
<g id="node1" class="node">
<title>AuthModule</title>
<polygon fill="#8dd3c7" stroke="black" points="1813.55,-122 1810.55,-126 1789.55,-126 1786.55,-122 1726.45,-122 1726.45,-86 1813.55,-86 1813.55,-122"/>
<text text-anchor="middle" x="1770" y="-99.8" font-family="Times,serif" font-size="14.00">AuthModule</text>
</g>
<!-- AppModule -->
<g id="node15" class="node">
<title>AppModule</title>
<polygon fill="#8dd3c7" stroke="black" points="951.66,-187 948.66,-191 927.66,-191 924.66,-187 868.34,-187 868.34,-151 951.66,-151 951.66,-187"/>
<text text-anchor="middle" x="910" y="-164.8" font-family="Times,serif" font-size="14.00">AppModule</text>
</g>
<!-- AuthModule&#45;&gt;AppModule -->
<g id="edge1" class="edge">
<title>AuthModule&#45;&gt;AppModule</title>
<path fill="none" stroke="black" d="M1770,-122.09C1770,-145.13 1770,-182 1770,-182 1770,-182 961.77,-182 961.77,-182"/>
<polygon fill="black" stroke="black" points="961.77,-178.5 951.77,-182 961.77,-185.5 961.77,-178.5"/>
</g>
<!-- CallUserHistoryModule -->
<g id="node2" class="node">
<title>CallUserHistoryModule</title>
<polygon fill="#8dd3c7" stroke="black" points="1708.8,-122 1705.8,-126 1684.8,-126 1681.8,-122 1557.2,-122 1557.2,-86 1708.8,-86 1708.8,-122"/>
<text text-anchor="middle" x="1633" y="-99.8" font-family="Times,serif" font-size="14.00">CallUserHistoryModule</text>
</g>
<!-- CallUserHistoryModule&#45;&gt;AppModule -->
<g id="edge2" class="edge">
<title>CallUserHistoryModule&#45;&gt;AppModule</title>
<path fill="none" stroke="black" d="M1633,-122.04C1633,-143.66 1633,-177 1633,-177 1633,-177 961.73,-177 961.73,-177"/>
<polygon fill="black" stroke="black" points="961.73,-173.5 951.73,-177 961.73,-180.5 961.73,-173.5"/>
</g>
<!-- ContactModule -->
<g id="node3" class="node">
<title>ContactModule</title>
<polygon fill="#8dd3c7" stroke="black" points="1539.6,-122 1536.6,-126 1515.6,-126 1512.6,-122 1436.4,-122 1436.4,-86 1539.6,-86 1539.6,-122"/>
<text text-anchor="middle" x="1488" y="-99.8" font-family="Times,serif" font-size="14.00">ContactModule</text>
</g>
<!-- ContactModule&#45;&gt;AppModule -->
<g id="edge3" class="edge">
<title>ContactModule&#45;&gt;AppModule</title>
<path fill="none" stroke="black" d="M1488,-122.22C1488,-142.37 1488,-172 1488,-172 1488,-172 962.03,-172 962.03,-172"/>
<polygon fill="black" stroke="black" points="962.03,-168.5 952.03,-172 962.03,-175.5 962.03,-168.5"/>
</g>
<!-- ContactPersonModule -->
<g id="node4" class="node">
<title>ContactPersonModule</title>
<polygon fill="#8dd3c7" stroke="black" points="1418.7,-122 1415.7,-126 1394.7,-126 1391.7,-122 1277.3,-122 1277.3,-86 1418.7,-86 1418.7,-122"/>
<text text-anchor="middle" x="1348" y="-99.8" font-family="Times,serif" font-size="14.00">ContactPersonModule</text>
</g>
<!-- ContactPersonModule&#45;&gt;AppModule -->
<g id="edge4" class="edge">
<title>ContactPersonModule&#45;&gt;AppModule</title>
<path fill="none" stroke="black" d="M1348,-122.22C1348,-140.83 1348,-167 1348,-167 1348,-167 962,-167 962,-167"/>
<polygon fill="black" stroke="black" points="962,-163.5 952,-167 962,-170.5 962,-163.5"/>
</g>
<!-- DirectorModule -->
<g id="node5" class="node">
<title>DirectorModule</title>
<polygon fill="#8dd3c7" stroke="black" points="1259.19,-122 1256.19,-126 1235.19,-126 1232.19,-122 1152.81,-122 1152.81,-86 1259.19,-86 1259.19,-122"/>
<text text-anchor="middle" x="1206" y="-99.8" font-family="Times,serif" font-size="14.00">DirectorModule</text>
</g>
<!-- DirectorModule&#45;&gt;AppModule -->
<g id="edge5" class="edge">
<title>DirectorModule&#45;&gt;AppModule</title>
<path fill="none" stroke="black" d="M1206,-122.03C1206,-139.06 1206,-162 1206,-162 1206,-162 961.78,-162 961.78,-162"/>
<polygon fill="black" stroke="black" points="961.78,-158.5 951.78,-162 961.78,-165.5 961.78,-158.5"/>
</g>
<!-- FiszkaModule -->
<g id="node6" class="node">
<title>FiszkaModule</title>
<polygon fill="#8dd3c7" stroke="black" points="1135.1,-122 1132.1,-126 1111.1,-126 1108.1,-122 1038.9,-122 1038.9,-86 1135.1,-86 1135.1,-122"/>
<text text-anchor="middle" x="1087" y="-99.8" font-family="Times,serif" font-size="14.00">FiszkaModule</text>
</g>
<!-- FiszkaModule&#45;&gt;AppModule -->
<g id="edge6" class="edge">
<title>FiszkaModule&#45;&gt;AppModule</title>
<path fill="none" stroke="black" d="M1087,-122.24C1087,-137.57 1087,-157 1087,-157 1087,-157 961.95,-157 961.95,-157"/>
<polygon fill="black" stroke="black" points="961.95,-153.5 951.95,-157 961.95,-160.5 961.95,-153.5"/>
</g>
<!-- GroupModule -->
<g id="node7" class="node">
<title>GroupModule</title>
<polygon fill="#8dd3c7" stroke="black" points="1020.82,-122 1017.82,-126 996.82,-126 993.82,-122 925.18,-122 925.18,-86 1020.82,-86 1020.82,-122"/>
<text text-anchor="middle" x="973" y="-99.8" font-family="Times,serif" font-size="14.00">GroupModule</text>
</g>
<!-- GroupModule&#45;&gt;AppModule -->
<g id="edge7" class="edge">
<title>GroupModule&#45;&gt;AppModule</title>
<path fill="none" stroke="black" d="M938.58,-122.11C938.58,-122.11 938.58,-140.99 938.58,-140.99"/>
<polygon fill="black" stroke="black" points="935.08,-140.99 938.58,-150.99 942.08,-140.99 935.08,-140.99"/>
</g>
<!-- InterviewsModule -->
<g id="node8" class="node">
<title>InterviewsModule</title>
<polygon fill="#8dd3c7" stroke="black" points="907.13,-122 904.13,-126 883.13,-126 880.13,-122 788.87,-122 788.87,-86 907.13,-86 907.13,-122"/>
<text text-anchor="middle" x="848" y="-99.8" font-family="Times,serif" font-size="14.00">InterviewsModule</text>
</g>
<!-- InterviewsModule&#45;&gt;AppModule -->
<g id="edge8" class="edge">
<title>InterviewsModule&#45;&gt;AppModule</title>
<path fill="none" stroke="black" d="M887.74,-122.11C887.74,-122.11 887.74,-140.99 887.74,-140.99"/>
<polygon fill="black" stroke="black" points="884.24,-140.99 887.74,-150.99 891.24,-140.99 884.24,-140.99"/>
</g>
<!-- LoggerModule -->
<g id="node9" class="node">
<title>LoggerModule</title>
<polygon fill="#8dd3c7" stroke="black" points="770.98,-122 767.98,-126 746.98,-126 743.98,-122 671.02,-122 671.02,-86 770.98,-86 770.98,-122"/>
<text text-anchor="middle" x="721" y="-99.8" font-family="Times,serif" font-size="14.00">LoggerModule</text>
</g>
<!-- LoggerModule&#45;&gt;AppModule -->
<g id="edge9" class="edge">
<title>LoggerModule&#45;&gt;AppModule</title>
<path fill="none" stroke="black" d="M721,-122.24C721,-137.57 721,-157 721,-157 721,-157 858.05,-157 858.05,-157"/>
<polygon fill="black" stroke="black" points="858.05,-160.5 868.05,-157 858.05,-153.5 858.05,-160.5"/>
</g>
<!-- RentalCostModule -->
<g id="node10" class="node">
<title>RentalCostModule</title>
<polygon fill="#8dd3c7" stroke="black" points="652.77,-122 649.77,-126 628.77,-126 625.77,-122 531.23,-122 531.23,-86 652.77,-86 652.77,-122"/>
<text text-anchor="middle" x="592" y="-99.8" font-family="Times,serif" font-size="14.00">RentalCostModule</text>
</g>
<!-- RentalCostModule&#45;&gt;AppModule -->
<g id="edge10" class="edge">
<title>RentalCostModule&#45;&gt;AppModule</title>
<path fill="none" stroke="black" d="M592,-122.03C592,-139.06 592,-162 592,-162 592,-162 858.1,-162 858.1,-162"/>
<polygon fill="black" stroke="black" points="858.1,-165.5 868.1,-162 858.1,-158.5 858.1,-165.5"/>
</g>
<!-- ScheduleDaysModule -->
<g id="node11" class="node">
<title>ScheduleDaysModule</title>
<polygon fill="#8dd3c7" stroke="black" points="512.63,-122 509.63,-126 488.63,-126 485.63,-122 373.37,-122 373.37,-86 512.63,-86 512.63,-122"/>
<text text-anchor="middle" x="443" y="-99.8" font-family="Times,serif" font-size="14.00">ScheduleDaysModule</text>
</g>
<!-- ScheduleDaysModule&#45;&gt;AppModule -->
<g id="edge11" class="edge">
<title>ScheduleDaysModule&#45;&gt;AppModule</title>
<path fill="none" stroke="black" d="M443,-122.22C443,-140.83 443,-167 443,-167 443,-167 858.15,-167 858.15,-167"/>
<polygon fill="black" stroke="black" points="858.15,-170.5 868.15,-167 858.15,-163.5 858.15,-170.5"/>
</g>
<!-- ScheduleModule -->
<g id="node12" class="node">
<title>ScheduleModule</title>
<polygon fill="#8dd3c7" stroke="black" points="355.37,-122 352.37,-126 331.37,-126 328.37,-122 244.63,-122 244.63,-86 355.37,-86 355.37,-122"/>
<text text-anchor="middle" x="300" y="-99.8" font-family="Times,serif" font-size="14.00">ScheduleModule</text>
</g>
<!-- ScheduleModule&#45;&gt;AppModule -->
<g id="edge12" class="edge">
<title>ScheduleModule&#45;&gt;AppModule</title>
<path fill="none" stroke="black" d="M300,-122.22C300,-142.37 300,-172 300,-172 300,-172 858.07,-172 858.07,-172"/>
<polygon fill="black" stroke="black" points="858.07,-175.5 868.07,-172 858.07,-168.5 858.07,-175.5"/>
</g>
<!-- SchoolModule -->
<g id="node13" class="node">
<title>SchoolModule</title>
<polygon fill="#8dd3c7" stroke="black" points="226.44,-122 223.44,-126 202.44,-126 199.44,-122 127.56,-122 127.56,-86 226.44,-86 226.44,-122"/>
<text text-anchor="middle" x="177" y="-99.8" font-family="Times,serif" font-size="14.00">SchoolModule</text>
</g>
<!-- SchoolModule&#45;&gt;AppModule -->
<g id="edge13" class="edge">
<title>SchoolModule&#45;&gt;AppModule</title>
<path fill="none" stroke="black" d="M177,-122.04C177,-143.66 177,-177 177,-177 177,-177 858.22,-177 858.22,-177"/>
<polygon fill="black" stroke="black" points="858.22,-180.5 868.22,-177 858.22,-173.5 858.22,-180.5"/>
</g>
<!-- UserModule -->
<g id="node14" class="node">
<title>UserModule</title>
<polygon fill="#8dd3c7" stroke="black" points="109.98,-122 106.98,-126 85.98,-126 82.98,-122 24.02,-122 24.02,-86 109.98,-86 109.98,-122"/>
<text text-anchor="middle" x="67" y="-99.8" font-family="Times,serif" font-size="14.00">UserModule</text>
</g>
<!-- UserModule&#45;&gt;AppModule -->
<g id="edge14" class="edge">
<title>UserModule&#45;&gt;AppModule</title>
<path fill="none" stroke="black" d="M67,-122.09C67,-145.13 67,-182 67,-182 67,-182 858.2,-182 858.2,-182"/>
<polygon fill="black" stroke="black" points="858.2,-185.5 868.2,-182 858.2,-178.5 858.2,-185.5"/>
</g>
</g>
</svg>
