<?xml version="1.0" encoding="UTF-8" standalone="no"?>
<!DOCTYPE svg PUBLIC "-//W3C//DTD SVG 1.1//EN"
 "http://www.w3.org/Graphics/SVG/1.1/DTD/svg11.dtd">
<!-- Generated by graphviz version 2.47.0 (20210316.0004)
 -->
<!-- Title: dependencies Pages: 1 -->
<svg width="504pt" height="211pt"
 viewBox="0.00 0.00 504.00 211.00" xmlns="http://www.w3.org/2000/svg" xmlns:xlink="http://www.w3.org/1999/xlink">
<g id="graph0" class="graph" transform="scale(1 1) rotate(0) translate(4 207)">
<title>dependencies</title>
<polygon fill="white" stroke="transparent" points="-4,4 -4,-207 500,-207 500,4 -4,4"/>
<text text-anchor="start" x="227.01" y="-42.4" font-family="Times-12" font-weight="bold" font-size="14.00">Legend</text>
<polygon fill="#ffffb3" stroke="transparent" points="14,-10 14,-30 34,-30 34,-10 14,-10"/>
<text text-anchor="start" x="37.63" y="-15.4" font-family="Times-12" font-size="14.00"> &#160;Declarations</text>
<polygon fill="#8dd3c7" stroke="transparent" points="127,-10 127,-30 147,-30 147,-10 127,-10"/>
<text text-anchor="start" x="150.73" y="-15.4" font-family="Times-12" font-size="14.00"> &#160;Module</text>
<polygon fill="#80b1d3" stroke="transparent" points="213,-10 213,-30 233,-30 233,-10 213,-10"/>
<text text-anchor="start" x="236.78" y="-15.4" font-family="Times-12" font-size="14.00"> &#160;Bootstrap</text>
<polygon fill="#fdb462" stroke="transparent" points="310,-10 310,-30 330,-30 330,-10 310,-10"/>
<text text-anchor="start" x="333.67" y="-15.4" font-family="Times-12" font-size="14.00"> &#160;Providers</text>
<polygon fill="#fb8072" stroke="transparent" points="406,-10 406,-30 426,-30 426,-10 406,-10"/>
<text text-anchor="start" x="429.73" y="-15.4" font-family="Times-12" font-size="14.00"> &#160;Exports</text>
<g id="clust1" class="cluster">
<title>cluster_DirectorModule</title>
<polygon fill="none" stroke="black" stroke-dasharray="1,5" points="99,-70 99,-195 397,-195 397,-70 99,-70"/>
</g>
<g id="clust3" class="cluster">
<title>cluster_DirectorModule_imports</title>
<polygon fill="none" stroke="black" points="275,-78 275,-130 389,-130 389,-78 275,-78"/>
</g>
<g id="clust6" class="cluster">
<title>cluster_DirectorModule_providers</title>
<polygon fill="none" stroke="black" points="107,-78 107,-130 267,-130 267,-78 107,-78"/>
</g>
<!-- PrismaModule -->
<g id="node1" class="node">
<title>PrismaModule</title>
<polygon fill="#8dd3c7" stroke="black" points="381.43,-122 378.43,-126 357.43,-126 354.43,-122 282.57,-122 282.57,-86 381.43,-86 381.43,-122"/>
<text text-anchor="middle" x="332" y="-99.8" font-family="Times,serif" font-size="14.00">PrismaModule</text>
</g>
<!-- DirectorModule -->
<g id="node2" class="node">
<title>DirectorModule</title>
<polygon fill="#8dd3c7" stroke="black" points="312.19,-187 309.19,-191 288.19,-191 285.19,-187 205.81,-187 205.81,-151 312.19,-151 312.19,-187"/>
<text text-anchor="middle" x="259" y="-164.8" font-family="Times,serif" font-size="14.00">DirectorModule</text>
</g>
<!-- PrismaModule&#45;&gt;DirectorModule -->
<g id="edge1" class="edge">
<title>PrismaModule&#45;&gt;DirectorModule</title>
<path fill="none" stroke="black" d="M297.44,-122.11C297.44,-122.11 297.44,-140.99 297.44,-140.99"/>
<polygon fill="black" stroke="black" points="293.94,-140.99 297.44,-150.99 300.94,-140.99 293.94,-140.99"/>
</g>
<!-- DirectorService -->
<g id="node3" class="node">
<title>DirectorService</title>
<ellipse fill="#fdb462" stroke="black" cx="187" cy="-104" rx="72.32" ry="18"/>
<text text-anchor="middle" x="187" y="-99.8" font-family="Times,serif" font-size="14.00">DirectorService</text>
</g>
<!-- DirectorService&#45;&gt;DirectorModule -->
<g id="edge2" class="edge">
<title>DirectorService&#45;&gt;DirectorModule</title>
<path fill="none" stroke="black" d="M232.53,-118.1C232.53,-118.1 232.53,-140.72 232.53,-140.72"/>
<polygon fill="black" stroke="black" points="229.03,-140.72 232.53,-150.72 236.03,-140.72 229.03,-140.72"/>
</g>
</g>
</svg>
