<?xml version="1.0" encoding="UTF-8" standalone="no"?>
<!DOCTYPE svg PUBLIC "-//W3C//DTD SVG 1.1//EN"
 "http://www.w3.org/Graphics/SVG/1.1/DTD/svg11.dtd">
<!-- Generated by graphviz version 2.47.0 (20210316.0004)
 -->
<!-- Title: dependencies Pages: 1 -->
<svg width="504pt" height="211pt"
 viewBox="0.00 0.00 504.00 211.00" xmlns="http://www.w3.org/2000/svg" xmlns:xlink="http://www.w3.org/1999/xlink">
<g id="graph0" class="graph" transform="scale(1 1) rotate(0) translate(4 207)">
<title>dependencies</title>
<polygon fill="white" stroke="transparent" points="-4,4 -4,-207 500,-207 500,4 -4,4"/>
<text text-anchor="start" x="227.01" y="-42.4" font-family="Times-12" font-weight="bold" font-size="14.00">Legend</text>
<polygon fill="#ffffb3" stroke="transparent" points="14,-10 14,-30 34,-30 34,-10 14,-10"/>
<text text-anchor="start" x="37.63" y="-15.4" font-family="Times-12" font-size="14.00"> &#160;Declarations</text>
<polygon fill="#8dd3c7" stroke="transparent" points="127,-10 127,-30 147,-30 147,-10 127,-10"/>
<text text-anchor="start" x="150.73" y="-15.4" font-family="Times-12" font-size="14.00"> &#160;Module</text>
<polygon fill="#80b1d3" stroke="transparent" points="213,-10 213,-30 233,-30 233,-10 213,-10"/>
<text text-anchor="start" x="236.78" y="-15.4" font-family="Times-12" font-size="14.00"> &#160;Bootstrap</text>
<polygon fill="#fdb462" stroke="transparent" points="310,-10 310,-30 330,-30 330,-10 310,-10"/>
<text text-anchor="start" x="333.67" y="-15.4" font-family="Times-12" font-size="14.00"> &#160;Providers</text>
<polygon fill="#fb8072" stroke="transparent" points="406,-10 406,-30 426,-30 426,-10 406,-10"/>
<text text-anchor="start" x="429.73" y="-15.4" font-family="Times-12" font-size="14.00"> &#160;Exports</text>
<g id="clust1" class="cluster">
<title>cluster_InterviewsModule</title>
<polygon fill="none" stroke="black" stroke-dasharray="1,5" points="23,-70 23,-195 473,-195 473,-70 23,-70"/>
</g>
<g id="clust3" class="cluster">
<title>cluster_InterviewsModule_imports</title>
<polygon fill="none" stroke="black" points="351,-78 351,-130 465,-130 465,-78 351,-78"/>
</g>
<g id="clust6" class="cluster">
<title>cluster_InterviewsModule_providers</title>
<polygon fill="none" stroke="black" points="31,-78 31,-130 343,-130 343,-78 31,-78"/>
</g>
<!-- PrismaModule -->
<g id="node1" class="node">
<title>PrismaModule</title>
<polygon fill="#8dd3c7" stroke="black" points="457.43,-122 454.43,-126 433.43,-126 430.43,-122 358.57,-122 358.57,-86 457.43,-86 457.43,-122"/>
<text text-anchor="middle" x="408" y="-99.8" font-family="Times,serif" font-size="14.00">PrismaModule</text>
</g>
<!-- InterviewsModule -->
<g id="node2" class="node">
<title>InterviewsModule</title>
<polygon fill="#8dd3c7" stroke="black" points="313.13,-187 310.13,-191 289.13,-191 286.13,-187 194.87,-187 194.87,-151 313.13,-151 313.13,-187"/>
<text text-anchor="middle" x="254" y="-164.8" font-family="Times,serif" font-size="14.00">InterviewsModule</text>
</g>
<!-- PrismaModule&#45;&gt;InterviewsModule -->
<g id="edge1" class="edge">
<title>PrismaModule&#45;&gt;InterviewsModule</title>
<path fill="none" stroke="black" d="M408,-122.11C408,-141.34 408,-169 408,-169 408,-169 323.54,-169 323.54,-169"/>
<polygon fill="black" stroke="black" points="323.54,-165.5 313.54,-169 323.54,-172.5 323.54,-165.5"/>
</g>
<!-- InterviewsService -->
<g id="node3" class="node">
<title>InterviewsService</title>
<ellipse fill="#fdb462" stroke="black" cx="254" cy="-104" rx="80.99" ry="18"/>
<text text-anchor="middle" x="254" y="-99.8" font-family="Times,serif" font-size="14.00">InterviewsService</text>
</g>
<!-- InterviewsService&#45;&gt;InterviewsModule -->
<g id="edge2" class="edge">
<title>InterviewsService&#45;&gt;InterviewsModule</title>
<path fill="none" stroke="black" d="M254,-122.11C254,-122.11 254,-140.99 254,-140.99"/>
<polygon fill="black" stroke="black" points="250.5,-140.99 254,-150.99 257.5,-140.99 250.5,-140.99"/>
</g>
<!-- UserService -->
<g id="node4" class="node">
<title>UserService</title>
<ellipse fill="#fdb462" stroke="black" cx="97" cy="-104" rx="58.44" ry="18"/>
<text text-anchor="middle" x="97" y="-99.8" font-family="Times,serif" font-size="14.00">UserService</text>
</g>
<!-- UserService&#45;&gt;InterviewsModule -->
<g id="edge3" class="edge">
<title>UserService&#45;&gt;InterviewsModule</title>
<path fill="none" stroke="black" d="M97,-122.11C97,-141.34 97,-169 97,-169 97,-169 184.65,-169 184.65,-169"/>
<polygon fill="black" stroke="black" points="184.65,-172.5 194.65,-169 184.64,-165.5 184.65,-172.5"/>
</g>
</g>
</svg>
