<?xml version="1.0" encoding="UTF-8" standalone="no"?>
<!DOCTYPE svg PUBLIC "-//W3C//DTD SVG 1.1//EN"
 "http://www.w3.org/Graphics/SVG/1.1/DTD/svg11.dtd">
<!-- Generated by graphviz version 2.47.0 (20210316.0004)
 -->
<!-- Title: dependencies Pages: 1 -->
<svg width="504pt" height="211pt"
 viewBox="0.00 0.00 504.00 211.00" xmlns="http://www.w3.org/2000/svg" xmlns:xlink="http://www.w3.org/1999/xlink">
<g id="graph0" class="graph" transform="scale(1 1) rotate(0) translate(4 207)">
<title>dependencies</title>
<polygon fill="white" stroke="transparent" points="-4,4 -4,-207 500,-207 500,4 -4,4"/>
<text text-anchor="start" x="227.01" y="-42.4" font-family="Times-12" font-weight="bold" font-size="14.00">Legend</text>
<polygon fill="#ffffb3" stroke="transparent" points="14,-10 14,-30 34,-30 34,-10 14,-10"/>
<text text-anchor="start" x="37.63" y="-15.4" font-family="Times-12" font-size="14.00"> &#160;Declarations</text>
<polygon fill="#8dd3c7" stroke="transparent" points="127,-10 127,-30 147,-30 147,-10 127,-10"/>
<text text-anchor="start" x="150.73" y="-15.4" font-family="Times-12" font-size="14.00"> &#160;Module</text>
<polygon fill="#80b1d3" stroke="transparent" points="213,-10 213,-30 233,-30 233,-10 213,-10"/>
<text text-anchor="start" x="236.78" y="-15.4" font-family="Times-12" font-size="14.00"> &#160;Bootstrap</text>
<polygon fill="#fdb462" stroke="transparent" points="310,-10 310,-30 330,-30 330,-10 310,-10"/>
<text text-anchor="start" x="333.67" y="-15.4" font-family="Times-12" font-size="14.00"> &#160;Providers</text>
<polygon fill="#fb8072" stroke="transparent" points="406,-10 406,-30 426,-30 426,-10 406,-10"/>
<text text-anchor="start" x="429.73" y="-15.4" font-family="Times-12" font-size="14.00"> &#160;Exports</text>
<g id="clust1" class="cluster">
<title>cluster_SheduleDaysModule</title>
<polygon fill="none" stroke="black" stroke-dasharray="1,5" points="80,-70 80,-195 416,-195 416,-70 80,-70"/>
</g>
<g id="clust6" class="cluster">
<title>cluster_SheduleDaysModule_providers</title>
<polygon fill="none" stroke="black" points="210,-78 210,-130 408,-130 408,-78 210,-78"/>
</g>
<g id="clust3" class="cluster">
<title>cluster_SheduleDaysModule_imports</title>
<polygon fill="none" stroke="black" points="88,-78 88,-130 202,-130 202,-78 88,-78"/>
</g>
<!-- PrismaModule -->
<g id="node1" class="node">
<title>PrismaModule</title>
<polygon fill="#8dd3c7" stroke="black" points="194.43,-122 191.43,-126 170.43,-126 167.43,-122 95.57,-122 95.57,-86 194.43,-86 194.43,-122"/>
<text text-anchor="middle" x="145" y="-99.8" font-family="Times,serif" font-size="14.00">PrismaModule</text>
</g>
<!-- SheduleDaysModule -->
<g id="node2" class="node">
<title>SheduleDaysModule</title>
<polygon fill="#8dd3c7" stroke="black" points="298.92,-187 295.92,-191 274.92,-191 271.92,-187 165.08,-187 165.08,-151 298.92,-151 298.92,-187"/>
<text text-anchor="middle" x="232" y="-164.8" font-family="Times,serif" font-size="14.00">SheduleDaysModule</text>
</g>
<!-- PrismaModule&#45;&gt;SheduleDaysModule -->
<g id="edge1" class="edge">
<title>PrismaModule&#45;&gt;SheduleDaysModule</title>
<path fill="none" stroke="black" d="M179.75,-122.11C179.75,-122.11 179.75,-140.99 179.75,-140.99"/>
<polygon fill="black" stroke="black" points="176.25,-140.99 179.75,-150.99 183.25,-140.99 176.25,-140.99"/>
</g>
<!-- SheduleDaysService -->
<g id="node3" class="node">
<title>SheduleDaysService</title>
<ellipse fill="#fdb462" stroke="black" cx="309" cy="-104" rx="90.89" ry="18"/>
<text text-anchor="middle" x="309" y="-99.8" font-family="Times,serif" font-size="14.00">SheduleDaysService</text>
</g>
<!-- SheduleDaysService&#45;&gt;SheduleDaysModule -->
<g id="edge2" class="edge">
<title>SheduleDaysService&#45;&gt;SheduleDaysModule</title>
<path fill="none" stroke="black" d="M258.38,-119.08C258.38,-119.08 258.38,-140.76 258.38,-140.76"/>
<polygon fill="black" stroke="black" points="254.88,-140.76 258.38,-150.76 261.88,-140.76 254.88,-140.76"/>
</g>
</g>
</svg>
