<?xml version="1.0" encoding="UTF-8" standalone="no"?>
<!DOCTYPE svg PUBLIC "-//W3C//DTD SVG 1.1//EN"
 "http://www.w3.org/Graphics/SVG/1.1/DTD/svg11.dtd">
<!-- Generated by graphviz version 2.47.0 (20210316.0004)
 -->
<!-- Title: dependencies Pages: 1 -->
<svg width="504pt" height="211pt"
 viewBox="0.00 0.00 504.00 211.00" xmlns="http://www.w3.org/2000/svg" xmlns:xlink="http://www.w3.org/1999/xlink">
<g id="graph0" class="graph" transform="scale(1 1) rotate(0) translate(4 207)">
<title>dependencies</title>
<polygon fill="white" stroke="transparent" points="-4,4 -4,-207 500,-207 500,4 -4,4"/>
<text text-anchor="start" x="227.01" y="-42.4" font-family="Times-12" font-weight="bold" font-size="14.00">Legend</text>
<polygon fill="#ffffb3" stroke="transparent" points="14,-10 14,-30 34,-30 34,-10 14,-10"/>
<text text-anchor="start" x="37.63" y="-15.4" font-family="Times-12" font-size="14.00"> &#160;Declarations</text>
<polygon fill="#8dd3c7" stroke="transparent" points="127,-10 127,-30 147,-30 147,-10 127,-10"/>
<text text-anchor="start" x="150.73" y="-15.4" font-family="Times-12" font-size="14.00"> &#160;Module</text>
<polygon fill="#80b1d3" stroke="transparent" points="213,-10 213,-30 233,-30 233,-10 213,-10"/>
<text text-anchor="start" x="236.78" y="-15.4" font-family="Times-12" font-size="14.00"> &#160;Bootstrap</text>
<polygon fill="#fdb462" stroke="transparent" points="310,-10 310,-30 330,-30 330,-10 310,-10"/>
<text text-anchor="start" x="333.67" y="-15.4" font-family="Times-12" font-size="14.00"> &#160;Providers</text>
<polygon fill="#fb8072" stroke="transparent" points="406,-10 406,-30 426,-30 426,-10 406,-10"/>
<text text-anchor="start" x="429.73" y="-15.4" font-family="Times-12" font-size="14.00"> &#160;Exports</text>
<g id="clust1" class="cluster">
<title>cluster_ContactPersonModule</title>
<polygon fill="none" stroke="black" stroke-dasharray="1,5" points="75,-70 75,-195 421,-195 421,-70 75,-70"/>
</g>
<g id="clust3" class="cluster">
<title>cluster_ContactPersonModule_imports</title>
<polygon fill="none" stroke="black" points="299,-78 299,-130 413,-130 413,-78 299,-78"/>
</g>
<g id="clust6" class="cluster">
<title>cluster_ContactPersonModule_providers</title>
<polygon fill="none" stroke="black" points="83,-78 83,-130 291,-130 291,-78 83,-78"/>
</g>
<!-- PrismaModule -->
<g id="node1" class="node">
<title>PrismaModule</title>
<polygon fill="#8dd3c7" stroke="black" points="405.43,-122 402.43,-126 381.43,-126 378.43,-122 306.57,-122 306.57,-86 405.43,-86 405.43,-122"/>
<text text-anchor="middle" x="356" y="-99.8" font-family="Times,serif" font-size="14.00">PrismaModule</text>
</g>
<!-- ContactPersonModule -->
<g id="node2" class="node">
<title>ContactPersonModule</title>
<polygon fill="#8dd3c7" stroke="black" points="334.7,-187 331.7,-191 310.7,-191 307.7,-187 193.3,-187 193.3,-151 334.7,-151 334.7,-187"/>
<text text-anchor="middle" x="264" y="-164.8" font-family="Times,serif" font-size="14.00">ContactPersonModule</text>
</g>
<!-- PrismaModule&#45;&gt;ContactPersonModule -->
<g id="edge1" class="edge">
<title>PrismaModule&#45;&gt;ContactPersonModule</title>
<path fill="none" stroke="black" d="M320.69,-122.11C320.69,-122.11 320.69,-140.99 320.69,-140.99"/>
<polygon fill="black" stroke="black" points="317.19,-140.99 320.69,-150.99 324.19,-140.99 317.19,-140.99"/>
</g>
<!-- ContactPersonService -->
<g id="node3" class="node">
<title>ContactPersonService</title>
<ellipse fill="#fdb462" stroke="black" cx="187" cy="-104" rx="96.12" ry="18"/>
<text text-anchor="middle" x="187" y="-99.8" font-family="Times,serif" font-size="14.00">ContactPersonService</text>
</g>
<!-- ContactPersonService&#45;&gt;ContactPersonModule -->
<g id="edge2" class="edge">
<title>ContactPersonService&#45;&gt;ContactPersonModule</title>
<path fill="none" stroke="black" d="M238.36,-119.4C238.36,-119.4 238.36,-140.94 238.36,-140.94"/>
<polygon fill="black" stroke="black" points="234.86,-140.94 238.36,-150.94 241.86,-140.94 234.86,-140.94"/>
</g>
</g>
</svg>
